# WaveFront *.obj file (generated by Autodesk ATF)

mtllib a45.mtl

g Cuerpo121

v 5.025587 -2.512793 0.500000
v -4.974413 -2.512793 0.500000
v -4.974413 -2.495756 0.370590
v -4.974413 -2.445806 0.250000
v -4.974413 -2.366347 0.146447
v -4.974413 -2.262793 0.066987
v -4.974413 -2.142203 0.017037
v -4.974413 -2.012793 0.000000
v 4.525587 -2.012793 0.000000
v 4.623132 -2.110339 0.009607
v 4.716929 -2.204135 0.038060
v 4.803372 -2.290579 0.084265
v 4.879140 -2.366347 0.146447
v 4.941322 -2.428528 0.222215
v 4.987527 -2.474733 0.308658
v 5.015980 -2.503186 0.402455
v 5.023179 -2.510386 0.450991
v -2.474413 -2.495756 0.370590
v 0.025587 -2.495756 0.370590
v 2.525587 -2.495756 0.370590
v -2.474413 -2.445806 0.250000
v 0.025587 -2.445806 0.250000
v 2.525587 -2.445806 0.250000
v -2.474413 -2.366347 0.146447
v 0.025587 -2.366347 0.146447
v 2.525587 -2.366347 0.146447
v -2.474413 -2.262793 0.066987
v 0.025587 -2.262793 0.066987
v 2.525587 -2.262793 0.066987
v -2.474413 -2.142203 0.017037
v 0.025587 -2.142203 0.017037
v 2.525587 -2.142203 0.017037
v 4.525587 2.487207 0.000000
v 4.654996 2.487207 0.017037
v 4.775587 2.487207 0.066987
v 4.879140 2.487207 0.146447
v 4.958600 2.487207 0.250000
v 5.008550 2.487207 0.370590
v 5.025587 2.487207 0.500000
v 4.654996 -0.012793 0.017037
v 4.775587 -0.012793 0.066987
v 4.879140 -0.012793 0.146447
v 4.958600 -0.012793 0.250000
v 5.008550 -0.012793 0.370590
v -4.974413 2.487207 0.000000
v -4.974413 -2.512793 1.000000
v -4.974413 -2.495756 1.129410
v -4.974413 -2.445806 1.250000
v -4.974413 -2.366347 1.353553
v -4.974413 -2.262793 1.433013
v -4.974413 -2.142203 1.482963
v -4.974413 -2.012793 1.500000
v -4.974413 2.487207 1.500000
v 5.025587 -2.512793 1.000000
v 5.025587 2.487207 1.000000
v 5.008550 2.487207 1.129410
v 4.958600 2.487207 1.250000
v 4.879140 2.487207 1.353553
v 4.775587 2.487207 1.433013
v 4.654996 2.487207 1.482963
v 4.525587 2.487207 1.500000
v 4.525587 -2.012793 1.500000
v 4.623132 -2.110339 1.490393
v 4.716929 -2.204135 1.461940
v 4.803372 -2.290579 1.415735
v 4.879140 -2.366347 1.353553
v 4.941322 -2.428528 1.277785
v 4.987527 -2.474733 1.191342
v 5.015980 -2.503186 1.097545
v 5.023179 -2.510386 1.049009
v 5.008550 -0.012793 1.129410
v 4.958600 -0.012793 1.250000
v 4.879140 -0.012793 1.353553
v 4.775587 -0.012793 1.433013
v 4.654996 -0.012793 1.482963
v -2.474413 -2.142203 1.482963
v 0.025587 -2.142203 1.482963
v 2.525587 -2.142203 1.482963
v -2.474413 -2.262793 1.433013
v 0.025587 -2.262793 1.433013
v 2.525587 -2.262793 1.433013
v -2.474413 -2.366347 1.353553
v 0.025587 -2.366347 1.353553
v 2.525587 -2.366347 1.353553
v -2.474413 -2.445806 1.250000
v 0.025587 -2.445806 1.250000
v 2.525587 -2.445806 1.250000
v -2.474413 -2.495756 1.129410
v 0.025587 -2.495756 1.129410
v 2.525587 -2.495756 1.129410
vt 7.500000 0.392699 0.000000
vt -2.500000 0.392699 0.000000
vt 7.497592 0.343612 0.000000
vt 2.500000 0.261799 0.000000
vt 5.000000 0.261799 0.000000
vt 5.000000 0.130900 0.000000
vt 7.461940 0.196350 0.000000
vt 7.415735 0.098175 0.000000
vt 5.000000 0.000000 0.000000
vt 7.353553 0.000000 0.000000
vt 7.277785 -0.098175 0.000000
vt 5.000000 -0.130900 0.000000
vt 7.191342 -0.196350 0.000000
vt 5.000000 -0.261799 0.000000
vt 7.097545 -0.294524 0.000000
vt 7.000000 -0.392699 0.000000
vt 2.500000 -0.261799 0.000000
vt -2.500000 -0.392699 0.000000
vt 0.000000 -0.261799 0.000000
vt -2.500000 -0.261799 0.000000
vt -2.500000 -0.130900 0.000000
vt 0.000000 -0.130900 0.000000
vt -2.500000 0.000000 0.000000
vt 0.000000 0.000000 0.000000
vt -2.500000 0.130900 0.000000
vt 0.000000 0.130900 0.000000
vt -2.500000 0.261799 0.000000
vt 0.000000 0.261799 0.000000
vt 7.490393 0.294524 0.000000
vt 2.500000 0.130900 0.000000
vt 2.500000 0.000000 0.000000
vt 2.500000 -0.130900 0.000000
vt -0.750000 -0.392699 0.000000
vt 3.750000 -0.392699 0.000000
vt -0.847545 -0.294524 0.000000
vt 1.250000 -0.261799 0.000000
vt -0.941342 -0.196350 0.000000
vt 1.250000 -0.130900 0.000000
vt -1.027785 -0.098175 0.000000
vt 1.250000 0.000000 0.000000
vt -1.103553 0.000000 0.000000
vt -1.165735 0.098175 0.000000
vt 1.250000 0.130900 0.000000
vt -1.211940 0.196350 0.000000
vt 1.250000 0.261799 0.000000
vt -1.240393 0.294524 0.000000
vt -1.247592 0.343612 0.000000
vt -1.250000 0.392699 0.000000
vt 3.750000 0.392699 0.000000
vt 3.750000 0.261799 0.000000
vt 3.750000 0.130900 0.000000
vt 3.750000 0.000000 0.000000
vt 3.750000 -0.130900 0.000000
vt 3.750000 -0.261799 0.000000
vt -4.500000 -2.000000 0.000000
vt 5.000000 -2.000000 0.000000
vt -4.500000 2.500000 0.000000
vt 5.000000 2.500000 0.000000
vt 4.629410 0.017037 0.000000
vt 4.750000 0.066987 0.000000
vt 4.500000 0.000000 0.000000
vt 4.853553 0.146447 0.000000
vt 4.933013 0.250000 0.000000
vt 4.982963 0.370590 0.000000
vt -0.000000 0.000000 0.000000
vt 5.000000 0.500000 0.000000
vt 5.000000 1.000000 0.000000
vt -0.000000 1.500000 0.000000
vt 4.982963 1.129410 0.000000
vt 4.500000 1.500000 0.000000
vt 4.933013 1.250000 0.000000
vt 4.853553 1.353553 0.000000
vt 4.750000 1.433013 0.000000
vt 4.629410 1.482963 0.000000
vt 0.000000 0.500000 0.000000
vt 10.000000 0.500000 0.000000
vt 0.000000 1.000000 0.000000
vt 10.000000 1.000000 0.000000
vt 1.250000 0.392699 0.000000
vt -3.750000 0.392699 0.000000
vt 1.247592 0.343612 0.000000
vt -1.250000 0.261799 0.000000
vt 1.240393 0.294524 0.000000
vt 1.211940 0.196350 0.000000
vt -1.250000 0.130900 0.000000
vt 1.165735 0.098175 0.000000
vt -1.250000 0.000000 0.000000
vt 1.103553 0.000000 0.000000
vt 1.027785 -0.098175 0.000000
vt -1.250000 -0.130900 0.000000
vt 0.941342 -0.196350 0.000000
vt -1.250000 -0.261799 0.000000
vt 0.847545 -0.294524 0.000000
vt 0.750000 -0.392699 0.000000
vt -3.750000 -0.392699 0.000000
vt -3.750000 -0.261799 0.000000
vt -3.750000 -0.130900 0.000000
vt -3.750000 0.000000 0.000000
vt -3.750000 0.130900 0.000000
vt -3.750000 0.261799 0.000000
vt -7.000000 -0.392699 0.000000
vt 2.500000 -0.392699 0.000000
vt -7.097545 -0.294524 0.000000
vt -5.000000 -0.261799 0.000000
vt -7.191342 -0.196350 0.000000
vt -5.000000 -0.130900 0.000000
vt -7.277785 -0.098175 0.000000
vt -5.000000 0.000000 0.000000
vt -7.353553 0.000000 0.000000
vt -7.415735 0.098175 0.000000
vt -5.000000 0.130900 0.000000
vt -7.461940 0.196350 0.000000
vt -5.000000 0.261799 0.000000
vt -7.490393 0.294524 0.000000
vt -7.497592 0.343612 0.000000
vt -7.500000 0.392699 0.000000
vt -2.500000 0.261799 0.000000
vt 2.500000 0.392699 0.000000
vt 0.000000 0.261799 0.000000
vt 2.500000 0.261799 0.000000
vt 2.500000 0.130900 0.000000
vt 0.000000 0.130900 0.000000
vt 2.500000 0.000000 0.000000
vt 0.000000 0.000000 0.000000
vt 2.500000 -0.130900 0.000000
vt 0.000000 -0.130900 0.000000
vt 2.500000 -0.261799 0.000000
vt 0.000000 -0.261799 0.000000
vt -2.500000 -0.261799 0.000000
vt -2.500000 -0.130900 0.000000
vt -2.500000 0.000000 0.000000
vt -2.500000 0.130900 0.000000
vt 0.000000 0.500000 0.000000
vt 5.000000 0.500000 0.000000
vt 0.000000 1.000000 0.000000
vt 5.000000 1.000000 0.000000
vt -0.000000 1.000000 0.000000
vt -0.000000 0.500000 0.000000
vt 10.000000 0.000000 0.000000
vt 0.017037 0.370590 0.000000
vt 0.066987 0.250000 0.000000
vt 0.500000 0.000000 0.000000
vt 0.146447 0.146447 0.000000
vt 0.250000 0.066987 0.000000
vt 0.370590 0.017037 0.000000
vt 10.000000 1.500000 0.000000
vt 0.017037 1.129410 0.000000
vt 0.066987 1.250000 0.000000
vt 0.500000 1.500000 0.000000
vt 0.146447 1.353553 0.000000
vt 0.250000 1.433013 0.000000
vt 0.370590 1.482963 0.000000
vt 4.500000 2.500000 0.000000
vt -5.000000 2.500000 0.000000
vt 4.500000 -2.000000 0.000000
vt -5.000000 -2.000000 0.000000
vn -0.000000 -1.000000 0.000000
vn -0.000000 -1.000000 0.000000
vn -0.000000 -0.995185 -0.098017
vn -0.000000 -0.965926 -0.258819
vn -0.000000 -0.965926 -0.258819
vn -0.000000 -0.866025 -0.500000
vn -0.000000 -0.923880 -0.382683
vn -0.000000 -0.831470 -0.555570
vn -0.000000 -0.707107 -0.707107
vn -0.000000 -0.707107 -0.707107
vn -0.000000 -0.555570 -0.831470
vn -0.000000 -0.500000 -0.866025
vn -0.000000 -0.382683 -0.923880
vn -0.000000 -0.258819 -0.965926
vn -0.000000 -0.195090 -0.980785
vn -0.000000 -0.000000 -1.000000
vn -0.000000 -0.258819 -0.965926
vn -0.000000 -0.000000 -1.000000
vn -0.000000 -0.258819 -0.965926
vn -0.000000 -0.258819 -0.965926
vn -0.000000 -0.500000 -0.866025
vn -0.000000 -0.500000 -0.866025
vn -0.000000 -0.707107 -0.707107
vn -0.000000 -0.707107 -0.707107
vn -0.000000 -0.866025 -0.500000
vn -0.000000 -0.866025 -0.500000
vn -0.000000 -0.965926 -0.258819
vn -0.000000 -0.965926 -0.258819
vn -0.000000 -0.980785 -0.195090
vn -0.000000 -0.866025 -0.500000
vn -0.000000 -0.707107 -0.707107
vn -0.000000 -0.500000 -0.866025
vn -0.000000 0.000000 -1.000000
vn 0.195090 0.000000 -0.980785
vn 0.258819 0.000000 -0.965926
vn 0.382683 0.000000 -0.923880
vn 0.500000 0.000000 -0.866025
vn 0.555570 0.000000 -0.831470
vn 0.707107 0.000000 -0.707107
vn 0.707107 0.000000 -0.707107
vn 0.831470 0.000000 -0.555570
vn 0.866025 0.000000 -0.500000
vn 0.923880 0.000000 -0.382683
vn 0.965926 0.000000 -0.258819
vn 0.980785 0.000000 -0.195090
vn 0.995185 0.000000 -0.098017
vn 1.000000 -0.000000 -0.000000
vn 1.000000 -0.000000 -0.000000
vn 0.965926 0.000000 -0.258819
vn 0.866025 0.000000 -0.500000
vn 0.707107 0.000000 -0.707107
vn 0.500000 0.000000 -0.866025
vn 0.258819 0.000000 -0.965926
vn -0.000000 0.000000 -1.000000
vn -1.000000 0.000000 0.000000
vn -1.000000 0.000000 0.000000
vn -1.000000 0.000000 0.000000
vn -1.000000 0.000000 0.000000
vn -1.000000 0.000000 0.000000
vn -1.000000 0.000000 0.000000
vn -1.000000 0.000000 0.000000
vn -1.000000 0.000000 0.000000
vn -1.000000 0.000000 0.000000
vn -1.000000 0.000000 0.000000
vn -1.000000 0.000000 0.000000
vn -1.000000 0.000000 0.000000
vn -1.000000 0.000000 0.000000
vn -1.000000 0.000000 0.000000
vn -1.000000 0.000000 0.000000
vn -1.000000 0.000000 0.000000
vn 0.000000 -1.000000 0.000000
vn 0.000000 -1.000000 0.000000
vn 1.000000 -0.000000 -0.000000
vn 1.000000 -0.000000 -0.000000
vn 0.995185 -0.000000 0.098017
vn 0.965926 -0.000000 0.258819
vn 0.980785 -0.000000 0.195090
vn 0.923880 -0.000000 0.382683
vn 0.866025 -0.000000 0.500000
vn 0.831470 -0.000000 0.555570
vn 0.707107 -0.000000 0.707107
vn 0.707107 -0.000000 0.707107
vn 0.555570 -0.000000 0.831470
vn 0.500000 -0.000000 0.866025
vn 0.382683 -0.000000 0.923880
vn 0.258819 -0.000000 0.965926
vn 0.195090 -0.000000 0.980785
vn -0.000000 -0.000000 1.000000
vn -0.000000 -0.000000 1.000000
vn 0.258819 -0.000000 0.965926
vn 0.500000 -0.000000 0.866025
vn 0.707107 -0.000000 0.707107
vn 0.866025 -0.000000 0.500000
vn 0.965926 -0.000000 0.258819
vn -0.000000 -0.000000 1.000000
vn -0.000000 -0.195090 0.980785
vn -0.000000 -0.258819 0.965926
vn -0.000000 -0.382683 0.923880
vn -0.000000 -0.500000 0.866025
vn -0.000000 -0.555570 0.831470
vn -0.000000 -0.707107 0.707107
vn -0.000000 -0.707107 0.707107
vn -0.000000 -0.831470 0.555570
vn -0.000000 -0.866025 0.500000
vn -0.000000 -0.923880 0.382683
vn -0.000000 -0.965926 0.258819
vn -0.000000 -0.980785 0.195090
vn -0.000000 -0.995185 0.098017
vn -0.000000 -0.965926 0.258819
vn -0.000000 -0.965926 0.258819
vn -0.000000 -0.965926 0.258819
vn -0.000000 -0.866025 0.500000
vn -0.000000 -0.866025 0.500000
vn -0.000000 -0.707107 0.707107
vn -0.000000 -0.707107 0.707107
vn -0.000000 -0.500000 0.866025
vn -0.000000 -0.500000 0.866025
vn -0.000000 -0.258819 0.965926
vn -0.000000 -0.258819 0.965926
vn -0.000000 -0.258819 0.965926
vn -0.000000 -0.500000 0.866025
vn -0.000000 -0.707107 0.707107
vn -0.000000 -0.866025 0.500000
vn 0.000000 1.000000 0.000000
vn 0.000000 1.000000 0.000000
vn 0.000000 1.000000 0.000000
vn 0.000000 1.000000 0.000000
vn 0.000000 1.000000 0.000000
vn 0.000000 1.000000 0.000000
vn 0.000000 1.000000 0.000000
vn 0.000000 1.000000 0.000000
vn 0.000000 1.000000 0.000000
vn 0.000000 1.000000 0.000000
vn 0.000000 1.000000 0.000000
vn 0.000000 1.000000 0.000000
vn 0.000000 1.000000 0.000000
vn 0.000000 1.000000 0.000000
vn 0.000000 1.000000 0.000000
vn 0.000000 1.000000 0.000000
vn 0.000000 0.000000 1.000000
usemtl Recubrimiento_de_polvo_(azul)
f 1/1/1 2/2/2 17/3/3
f 17/3/3 2/2/2 19/4/4
f 17/3/3 19/4/4 20/5/5
f 20/5/5 19/4/4 23/6/6
f 20/5/5 23/6/6 15/7/7
f 15/7/7 23/6/6 14/8/8
f 14/8/8 23/6/6 26/9/9
f 14/8/8 26/9/9 13/10/10
f 13/10/10 26/9/9 12/11/11
f 12/11/11 26/9/9 29/12/12
f 12/11/11 29/12/12 11/13/13
f 11/13/13 29/12/12 32/14/14
f 11/13/13 32/14/14 10/15/15
f 10/15/15 32/14/14 9/16/16
f 9/16/16 32/14/14 31/17/17
f 9/16/16 31/17/17 8/18/18
f 8/18/18 31/17/17 30/19/19
f 8/18/18 30/19/19 7/20/20
f 7/20/20 30/19/19 6/21/21
f 6/21/21 30/19/19 27/22/22
f 6/21/21 27/22/22 5/23/23
f 5/23/23 27/22/22 24/24/24
f 5/23/23 24/24/24 4/25/25
f 4/25/25 24/24/24 21/26/26
f 4/25/25 21/26/26 3/27/27
f 3/27/27 21/26/26 18/28/28
f 3/27/27 18/28/28 2/2/2
f 2/2/2 18/28/28 19/4/4
f 15/7/7 16/29/29 20/5/5
f 20/5/5 16/29/29 17/3/3
f 19/4/4 18/28/28 22/30/30
f 22/30/30 18/28/28 21/26/26
f 22/30/30 21/26/26 25/31/31
f 25/31/31 21/26/26 24/24/24
f 25/31/31 24/24/24 28/32/32
f 28/32/32 24/24/24 27/22/22
f 28/32/32 27/22/22 31/17/17
f 31/17/17 27/22/22 30/19/19
f 26/9/9 23/6/6 22/30/30
f 22/30/30 23/6/6 19/4/4
f 26/9/9 22/30/30 25/31/31
f 29/12/12 26/9/9 25/31/31
f 29/12/12 25/31/31 28/32/32
f 32/14/14 29/12/12 28/32/32
f 32/14/14 28/32/32 31/17/17
f 9/33/16 33/34/33 10/35/34
f 10/35/34 33/34/33 40/36/35
f 10/35/34 40/36/35 11/37/36
f 11/37/36 40/36/35 41/38/37
f 11/37/36 41/38/37 12/39/38
f 12/39/38 41/38/37 42/40/39
f 12/39/38 42/40/39 13/41/40
f 13/41/40 42/40/39 14/42/41
f 14/42/41 42/40/39 43/43/42
f 14/42/41 43/43/42 15/44/43
f 15/44/43 43/43/42 44/45/44
f 15/44/43 44/45/44 16/46/45
f 16/46/45 44/45/44 17/47/46
f 17/47/46 44/45/44 1/48/47
f 1/48/47 44/45/44 39/49/48
f 39/49/48 44/45/44 38/50/49
f 38/50/49 44/45/44 37/51/50
f 37/51/50 44/45/44 43/43/42
f 37/51/50 43/43/42 36/52/51
f 36/52/51 43/43/42 42/40/39
f 36/52/51 42/40/39 35/53/52
f 35/53/52 42/40/39 41/38/37
f 35/53/52 41/38/37 34/54/53
f 34/54/53 41/38/37 40/36/35
f 34/54/53 40/36/35 33/34/33
f 9/55/16 8/56/18 33/57/33
f 33/57/33 8/56/18 45/58/54
f 7/59/55 6/60/56 8/61/57
f 8/61/57 6/60/56 5/62/58
f 8/61/57 5/62/58 4/63/59
f 4/63/59 3/64/60 8/61/57
f 8/61/57 3/64/60 45/65/61
f 45/65/61 3/64/60 2/66/62
f 45/65/61 2/66/62 46/67/63
f 45/65/61 46/67/63 53/68/64
f 53/68/64 46/67/63 47/69/65
f 53/68/64 47/69/65 52/70/66
f 52/70/66 47/69/65 48/71/67
f 52/70/66 48/71/67 49/72/68
f 49/72/68 50/73/69 52/70/66
f 52/70/66 50/73/69 51/74/70
f 2/75/2 1/76/1 46/77/71
f 46/77/71 1/76/1 54/78/72
f 54/79/73 55/80/74 70/81/75
f 70/81/75 55/80/74 71/82/76
f 70/81/75 71/82/76 69/83/77
f 69/83/77 71/82/76 68/84/78
f 68/84/78 71/82/76 72/85/79
f 68/84/78 72/85/79 67/86/80
f 67/86/80 72/85/79 73/87/81
f 67/86/80 73/87/81 66/88/82
f 66/88/82 73/87/81 65/89/83
f 65/89/83 73/87/81 74/90/84
f 65/89/83 74/90/84 64/91/85
f 64/91/85 74/90/84 75/92/86
f 64/91/85 75/92/86 63/93/87
f 63/93/87 75/92/86 62/94/88
f 62/94/88 75/92/86 61/95/89
f 61/95/89 75/92/86 60/96/90
f 60/96/90 75/92/86 59/97/91
f 59/97/91 75/92/86 74/90/84
f 59/97/91 74/90/84 58/98/92
f 58/98/92 74/90/84 73/87/81
f 58/98/92 73/87/81 57/99/93
f 57/99/93 73/87/81 72/85/79
f 57/99/93 72/85/79 56/100/94
f 56/100/94 72/85/79 71/82/76
f 56/100/94 71/82/76 55/80/74
f 62/101/88 52/102/95 63/103/96
f 63/103/96 52/102/95 78/104/97
f 63/103/96 78/104/97 64/105/98
f 64/105/98 78/104/97 81/106/99
f 64/105/98 81/106/99 65/107/100
f 65/107/100 81/106/99 84/108/101
f 65/107/100 84/108/101 66/109/102
f 66/109/102 84/108/101 67/110/103
f 67/110/103 84/108/101 87/111/104
f 67/110/103 87/111/104 68/112/105
f 68/112/105 87/111/104 90/113/106
f 68/112/105 90/113/106 69/114/107
f 69/114/107 90/113/106 70/115/108
f 70/115/108 90/113/106 54/116/72
f 54/116/72 90/113/106 89/117/109
f 54/116/72 89/117/109 46/118/71
f 46/118/71 89/117/109 88/119/110
f 46/118/71 88/119/110 47/120/111
f 47/120/111 88/119/110 48/121/112
f 48/121/112 88/119/110 85/122/113
f 48/121/112 85/122/113 49/123/114
f 49/123/114 85/122/113 82/124/115
f 49/123/114 82/124/115 50/125/116
f 50/125/116 82/124/115 79/126/117
f 50/125/116 79/126/117 51/127/118
f 51/127/118 79/126/117 76/128/119
f 51/127/118 76/128/119 52/102/95
f 52/102/95 76/128/119 77/129/120
f 52/102/95 77/129/120 78/104/97
f 78/104/97 77/129/120 81/106/99
f 77/129/120 76/128/119 80/130/121
f 80/130/121 76/128/119 79/126/117
f 80/130/121 79/126/117 83/131/122
f 83/131/122 79/126/117 82/124/115
f 83/131/122 82/124/115 86/132/123
f 86/132/123 82/124/115 85/122/113
f 86/132/123 85/122/113 89/117/109
f 89/117/109 85/122/113 88/119/110
f 84/108/101 81/106/99 80/130/121
f 80/130/121 81/106/99 77/129/120
f 84/108/101 80/130/121 83/131/122
f 87/111/104 84/108/101 83/131/122
f 87/111/104 83/131/122 86/132/123
f 90/113/106 87/111/104 86/132/123
f 90/113/106 86/132/123 89/117/109
f 1/133/47 39/134/48 54/135/73
f 54/135/73 39/134/48 55/136/74
f 55/137/124 39/138/125 45/139/126
f 45/139/126 39/138/125 38/140/127
f 45/139/126 38/140/127 37/141/128
f 45/139/126 37/141/128 33/142/129
f 33/142/129 37/141/128 36/143/130
f 33/142/129 36/143/130 35/144/131
f 35/144/131 34/145/132 33/142/129
f 45/139/126 53/146/133 55/137/124
f 55/137/124 53/146/133 56/147/134
f 56/147/134 53/146/133 57/148/135
f 57/148/135 53/146/133 61/149/136
f 57/148/135 61/149/136 58/150/137
f 58/150/137 61/149/136 59/151/138
f 59/151/138 61/149/136 60/152/139
f 61/153/89 53/154/140 62/155/88
f 62/155/88 53/154/140 52/156/95
# 90 vertices
# 156 texture params
# 140 normals
# 176 facets

# 1 groups
