<?xml version="1.0"?>
<svg width="99.21" height="99.28" xmlns="http://www.w3.org/2000/svg" xmlns:svg="http://www.w3.org/2000/svg" data-name="Capa 2">
 <defs>
  <style>.cls-1 {
        stroke-width: 0px;
      }</style>
 </defs>
 <g class="layer">
  <title>Layer 1</title>
  <g data-name="Capa 1" id="Capa_1-2">
   <g id="svg_1">
    <path class="cls-1" d="m49.72,99.28c-27.37,-0.17 -49.68,-21.71 -49.72,-49.62c-0.04,-28.15 22.62,-49.64 49.61,-49.66c26.41,-0.02 49.49,20.84 49.6,49.45c0.11,28.14 -22.3,49.55 -49.49,49.83zm-45.2,-49.77c-0.28,24.1 19.38,45.3 45.16,45.25c25.95,-0.04 45.1,-21.47 45.09,-45.16c-0.01,-24.34 -20,-45.12 -45.11,-45.15c-24.6,-0.04 -45.25,20.13 -45.15,45.06l0.01,0z" fill="#efb810" id="svg_2"/>
    <path class="cls-1" d="m37.62,50.64c-2.24,-1.9 -3.86,-4.11 -4.56,-6.97c-1.54,-6.35 2.37,-12.95 8.74,-14.62c6.71,-1.76 13.37,2.19 15.06,8.92c1.59,6.36 -2.34,12.99 -8.72,14.6c-1.21,0.3 -2.48,0.43 -3.73,0.46c-8.48,0.26 -15.52,6.28 -17.11,14.68c-0.1,0.51 -0.18,1.02 -0.31,1.52c-0.28,1.14 -0.93,1.72 -1.78,1.55c-1.06,-0.22 -1.42,-0.97 -1.33,-1.98c0.05,-0.59 0.09,-1.18 0.21,-1.75c1.41,-7.1 5.45,-12.17 11.92,-15.33c0.46,-0.23 0.93,-0.44 1.4,-0.67c0.05,-0.02 0.07,-0.12 0.21,-0.41zm7.24,-18.73c-4.44,-0.05 -8.91,3.38 -8.9,8.89c0,5.78 4.69,8.99 9.1,8.94c4.88,-0.05 8.93,-4.09 8.93,-8.92c0,-4.96 -4.1,-8.96 -9.13,-8.91z" fill="#efb810" id="svg_3"/>
    <path class="cls-1" d="m58.21,57.56c-1.92,0 -3.85,0.04 -5.77,-0.03c-0.53,-0.02 -1.19,-0.26 -1.55,-0.63c-0.79,-0.81 -0.35,-2.15 0.78,-2.45c0.56,-0.15 1.17,-0.13 1.76,-0.12c3.4,0.01 6.81,0.04 10.21,0.07c0.37,0 0.75,-0.03 1.11,0.04c0.92,0.18 1.43,0.76 1.36,1.72c-0.06,0.88 -0.61,1.35 -1.46,1.36c-2.15,0.03 -4.29,0 -6.44,0c0,0 0,0.02 0,0.03l0,0.01z" fill="#efb810" id="svg_4"/>
    <path class="cls-1" d="m58.12,70.84c-1.85,0 -3.7,0.04 -5.54,-0.01c-1.3,-0.03 -2.01,-0.63 -2.04,-1.56c-0.03,-0.95 0.65,-1.63 1.93,-1.65c3.92,-0.05 7.83,-0.05 11.75,0c1.34,0.02 1.95,0.64 1.9,1.64c-0.04,0.97 -0.69,1.53 -2.01,1.57c-1.99,0.05 -3.99,0.01 -5.99,0.01z" fill="#efb810" id="svg_5"/>
    <path class="cls-1" d="m58.47,64.18c-1.77,0 -3.54,0 -5.31,0c-0.44,0 -0.89,0.03 -1.32,-0.05c-0.84,-0.15 -1.3,-0.72 -1.28,-1.55c0.02,-0.83 0.51,-1.36 1.35,-1.5c0.29,-0.05 0.59,-0.04 0.88,-0.04c3.69,0 7.38,0 11.07,0c0.29,0 0.59,0 0.88,0.03c0.85,0.11 1.34,0.6 1.37,1.46c0.03,0.96 -0.49,1.54 -1.44,1.62c-0.81,0.07 -1.62,0.03 -2.43,0.03c-1.25,0 -2.51,0 -3.76,0l-0.01,0z" fill="#efb810" id="svg_6"/>
   </g>
  </g>
 </g>
</svg>