<?xml version="1.0"?>
<svg width="99.21" height="99.24" xmlns="http://www.w3.org/2000/svg" xmlns:svg="http://www.w3.org/2000/svg" data-name="Capa 2">
 <defs>
  <style>.cls-1 {
        stroke-width: 0px;
      }</style>
 </defs>
 <g class="layer">
  <title>Layer 1</title>
  <g data-name="Capa 1" id="Capa_1-2">
   <g id="svg_1">
    <path class="cls-1" d="m49.55,99.24c-27.42,-0.1 -49.66,-22.43 -49.55,-49.76c0.11,-26.65 21.28,-49.58 49.78,-49.48c28.62,0.1 49.56,23.31 49.43,49.82c-0.13,26.94 -21.77,49.27 -49.66,49.42zm-0.04,-4.53c24.01,0.32 45.15,-19.42 45.25,-44.95c0.1,-24.64 -19.84,-45.32 -45.17,-45.31c-25.27,0.01 -45.14,20.6 -45.13,45.11c0.01,25.8 21.31,45.38 45.05,45.15z" fill="#efb810" id="svg_2"/>
    <path class="cls-1" d="m19.85,63.06c0.21,-0.75 0.32,-1.33 0.53,-1.88c0.39,-1.04 0.83,-2.06 1.24,-3.09c0.74,-1.83 0.57,-2.22 -1.32,-2.98c-1.23,-0.5 -2.48,-0.98 -3.7,-1.5c-1.06,-0.45 -1.59,-1.23 -1.53,-2.44c0.06,-1.33 0.05,-2.67 0,-4c-0.04,-1.12 0.48,-1.84 1.44,-2.27c1.35,-0.61 2.71,-1.18 4.06,-1.78c1.56,-0.7 1.72,-1.15 1.05,-2.72c-0.55,-1.29 -1.08,-2.59 -1.62,-3.89c-0.42,-1.01 -0.19,-1.87 0.59,-2.62c0.54,-0.51 1.06,-1.04 1.59,-1.55q2.64,-2.55 6.13,-1.22c0.69,0.26 1.37,0.57 2.06,0.83c1.56,0.58 2.02,0.37 2.7,-1.2c0.44,-1.02 0.86,-2.05 1.26,-3.08c0.59,-1.56 1.59,-2.41 3.37,-2.21c0.95,0.11 1.93,0.11 2.88,0c1.78,-0.2 2.77,0.67 3.39,2.2c0.45,1.1 0.9,2.19 1.41,3.26c0.65,1.37 1.19,1.56 2.63,0.99c1.24,-0.49 2.47,-0.98 3.7,-1.5c1.3,-0.55 2.4,-0.44 3.37,0.71c0.72,0.84 1.53,1.62 2.38,2.32c1.16,0.95 1.3,2.06 0.77,3.36c-0.39,0.96 -0.77,1.92 -1.17,2.88c-1,2.4 -0.88,2.69 1.47,3.61c1.1,0.43 2.19,0.88 3.29,1.33c1.07,0.44 1.62,1.22 1.61,2.4c-0.02,1.33 -0.03,2.67 0,4c0.02,1.19 -0.56,1.96 -1.6,2.42c-1.28,0.57 -2.59,1.09 -3.87,1.66c-1.58,0.7 -1.75,1.14 -1.1,2.73c0.51,1.23 1.02,2.46 1.55,3.68c0.51,1.16 0.32,2.12 -0.65,2.99c-0.94,0.84 -1.85,1.71 -2.68,2.66c-0.81,0.92 -1.76,1.04 -2.81,0.7c-1.19,-0.39 -2.37,-0.85 -3.54,-1.3c-2.38,-0.92 -2.62,-0.81 -3.61,1.62c-0.45,1.1 -0.91,2.18 -1.41,3.25c-0.45,0.95 -1.17,1.45 -2.29,1.4c-1.33,-0.06 -2.67,-0.07 -4,0c-1.19,0.06 -1.99,-0.42 -2.5,-1.46c-0.48,-1 -0.96,-2 -1.4,-3.02c-1.16,-2.68 -1.33,-2.75 -3.92,-1.66c-1.02,0.43 -2.06,0.83 -3.09,1.23c-1.15,0.44 -2.12,0.31 -2.99,-0.68c-0.88,-1 -1.91,-1.86 -2.82,-2.83c-0.38,-0.41 -0.6,-0.95 -0.86,-1.37l0.01,0.02zm6.05,1.15c1.42,-0.6 2.77,-1.18 4.12,-1.75c2.05,-0.86 5.23,0.39 6.11,2.4c0.62,1.4 1.24,2.8 1.84,4.13l2.76,0c0.54,-1.33 1.07,-2.62 1.58,-3.92c0.87,-2.18 3.96,-3.51 6.18,-2.66c1.43,0.55 2.86,1.11 4.27,1.65c0.75,-0.66 1.34,-1.18 1.95,-1.72c-0.61,-1.37 -1.12,-2.52 -1.63,-3.66c-1.2,-2.71 0,-5.62 2.79,-6.78c1.22,-0.51 2.43,-1.02 3.69,-1.55l0,-2.6c-1.41,-0.54 -2.78,-1.07 -4.14,-1.61c-2.09,-0.82 -3.44,-3.91 -2.61,-5.99c0.56,-1.42 1.13,-2.85 1.7,-4.28c-0.73,-0.69 -1.3,-1.23 -1.93,-1.82c-1.45,0.63 -2.8,1.21 -4.15,1.79c-1.94,0.83 -5.24,-0.48 -6.1,-2.44c-0.61,-1.4 -1.21,-2.81 -1.76,-4.09l-2.81,0c-0.57,1.4 -1.11,2.77 -1.68,4.13c-0.77,1.86 -4.01,3.23 -5.9,2.49c-1.5,-0.58 -2.99,-1.17 -4.25,-1.66c-0.89,0.66 -1.54,1.14 -2.17,1.62c0.71,1.59 1.28,2.87 1.85,4.15c0.88,2 -0.39,5.23 -2.39,6.09c-1.48,0.63 -2.96,1.25 -4.35,1.83l0,2.53c1,0.4 1.92,0.94 2.92,1.14c2.23,0.46 3.33,1.88 3.99,3.94c0.29,0.91 0.37,1.65 -0.03,2.52c-0.64,1.39 -1.18,2.83 -1.78,4.28c0.69,0.66 1.27,1.2 1.94,1.83l-0.01,0.01z" fill="#efb810" id="svg_3"/>
    <path class="cls-1" d="m72.96,71.38c-1.27,1.32 -2.15,2.78 -4.48,2.03c-2.34,-0.75 -2.16,-2.46 -2.47,-4.2c-1.73,-0.18 -3.49,0.34 -4.54,-1.89c-1.03,-2.18 0.18,-3.32 1.29,-4.8c-1.01,-1.32 -2.77,-2.08 -1.95,-4.45c0.78,-2.25 2.33,-2.38 4.21,-2.63c0.12,-1.76 -0.3,-3.51 1.92,-4.66c2.2,-1.14 3.27,0.21 4.68,1.25c1.33,-1.21 2.15,-2.78 4.51,-2.01c2.34,0.77 2.13,2.5 2.5,4.23c1.68,0.24 3.46,-0.35 4.51,1.88c1.03,2.18 -0.14,3.32 -1.28,4.82c0.97,1.31 2.77,2.06 1.95,4.42c-0.77,2.21 -2.22,2.49 -4.12,2.63c-0.37,1.69 0.32,3.6 -2.01,4.69c-2.18,1.02 -3.29,-0.15 -4.72,-1.31zm2.44,-19c-1.26,0.7 -1.72,2.3 -3.57,2.34c-1.7,0.03 -2.48,-1.29 -3.86,-1.78c-0.18,1.51 0.31,2.86 -0.76,4.16c-1.12,1.36 -2.67,1 -4.06,1.6c0.66,1.33 2.26,1.8 2.31,3.65c0.05,1.74 -1.35,2.5 -1.86,3.9c1.47,0.34 2.79,-0.37 4.12,0.77c1.35,1.16 0.91,2.65 1.42,4.08c1.35,-0.78 1.79,-2.29 3.53,-2.36c1.74,-0.08 2.6,1.13 3.94,1.96c0.4,-1.57 -0.37,-2.98 0.81,-4.36c1.17,-1.36 2.73,-0.85 4.04,-1.56c-0.64,-1.36 -2.28,-1.81 -2.31,-3.67c-0.02,-1.68 1.46,-2.43 1.69,-3.86c-3.38,0.03 -4.74,-0.09 -5.44,-4.86l0,-0.01z" fill="#efb810" id="svg_4"/>
    <path class="cls-1" d="m39.31,40.33c5.03,0.02 8.89,3.85 8.88,8.82c0,4.94 -3.92,8.82 -8.92,8.84c-5.05,0.01 -9.12,-4.03 -9.04,-8.99c0.08,-4.9 4.04,-8.7 9.07,-8.68l0.01,0.01zm-0.08,13.85c2.89,0 5.19,-2.14 5.25,-4.92c0.07,-2.82 -2.35,-5.23 -5.23,-5.24c-2.86,0 -5.38,2.48 -5.3,5.22c0.08,2.76 2.41,4.94 5.28,4.94z" fill="#efb810" id="svg_5"/>
    <path class="cls-1" d="m72.25,66.63c-2.7,-0.01 -4.72,-2.05 -4.75,-4.78c-0.03,-2.93 2.12,-5.1 4.99,-5.03c2.63,0.06 4.69,2.22 4.68,4.9c-0.02,2.78 -2.16,4.92 -4.92,4.91zm0,-3.13c1,0 1.83,-0.84 1.79,-1.83c-0.03,-0.93 -0.77,-1.71 -1.65,-1.73c-1,-0.02 -1.77,0.79 -1.76,1.84c0,1 0.68,1.71 1.61,1.71l0.01,0.01z" fill="#efb810" id="svg_6"/>
   </g>
  </g>
 </g>
</svg>