<?xml version="1.0" encoding="UTF-8"?>
<svg id="Capa_2" data-name="Capa 2" xmlns="http://www.w3.org/2000/svg" viewBox="0 0 352.92 223.52">
  <defs>
    <style>
      .cls-1 {
        stroke-width: 0px;
      }
    </style>
  </defs>
  <g id="Capa_1-2" data-name="Capa 1">
    <g>
      <path class="cls-1" d="m141.34,116.95c-2.23-.15-4.28.22-6.44,1.08-2.71,1.08-5.68,1.56-8.57,2.12-1.87.36-3.8.39-5.7.59-1.19.12-2.42.12-3.54.47-.74.24-1.56.89-1.9,1.58-1.84,3.62-3.49,7.34-5.3,10.97-4.02,8.09-7.41,16.43-10.42,24.95-1.91,5.41-4.27,10.66-6.44,15.98-2.71,6.65-5.4,13.31-8.14,19.95-1.38,3.33-3.12,6.44-5.46,9.24-4.76,5.69-10.34,5.02-15.34,1.72-2.19-1.44-3.71-3.5-4.9-5.8-1.81-3.51-2.94-7.25-3.3-11.19-.08-.94-.02-1.92.18-2.85.29-1.36,1.15-1.67,2.25-.81.74.58,1.35,1.35,1.91,2.12,1.83,2.52,3.54,5.13,5.44,7.59,1.11,1.44,2.42,2.77,3.78,3.98,1.27,1.14,2,1.08,2.99-.31,1.34-1.88,2.69-3.82,3.61-5.92,1.56-3.58,2.8-7.29,4.14-10.97.23-.63-.02-1.23-.18-1.89-.29-1.18-.13-2.92.59-3.81,4.63-5.68,6.26-12.7,8.94-19.24,4.17-10.19,8.22-20.44,12.31-30.66.14-.36.25-.73.42-1.24-2.15-.87-4.19-.37-6.11.23-5.17,1.63-10.49,1.91-15.84,2.12-2.07.08-3.97-.46-5.58-1.77-.6-.49-1.17-1.12-1.54-1.8-.69-1.25-.41-2.4.86-3.05,1.19-.6,2.51-1.07,3.82-1.26,9.01-1.28,18.02-2.5,27.04-3.67,2.19-.28,4.02-.78,4.76-3.24.36-1.2,1.45-1.9,2.71-2.11,2.73-.45,5.32-.19,7.26,2.03,1.12,1.28,2.41,1.72,4.03,1.57,7.26-.66,14.52-.53,21.8-.24,1.7.07,3.51-.33,5.12-.92,2.67-.98,5.14-.83,7.59.5,3.08,1.67,5.63,3.93,7.43,6.95,1.52,2.56,1.87,5.29.61,8.02-.9,1.94-1.91,3.87-3.15,5.61-1.67,2.34-3.64,4.45-5.4,6.72-1.01,1.3-1.86,2.71-2.95,4.31-.55-.14-1.42-.41-2.33.44-2.95,2.76-6.47,4.58-10.38,5.71-.56-.65-1.07-1.49-1.8-2.04-1.62-1.23-1.13-2.19.27-3.18,1.83-1.29,3.56-2.72,5.43-3.94,3.64-2.38,6.32-5.62,8.41-9.35,1.2-2.15,2.18-4.44,3.09-6.74.4-1.01.54-2.19.51-3.28-.06-2.32-1.81-3.57-3.93-2.65-1.65.72-3.26,1.73-4.62,2.91-4,3.49-7.21,7.69-10.16,12.07-9.9,14.69-17.1,30.65-21.87,47.69-1.25,4.48-1.96,9.06-1.72,13.74.07,1.34.24,2.73.67,4,.69,2.05,2.17,3.27,4.44,3.41,4.19.27,8.24-.87,11.13-3.58,4.1-3.85,7.87-8.14,10.9-12.99,6.36-10.2,10.93-21.1,13.06-32.96.24-1.32.18-2.71.22-4.06.04-1.2-.07-2.41.05-3.59.15-1.56,1.29-2.19,2.74-1.65,3.34,1.26,6.13,5.28,6.22,8.96.11,4.6-.78,9.07-2.13,13.42-3.83,12.44-10.02,23.65-18.2,33.73-3.09,3.8-6.79,6.98-11.29,9.12-3.57,1.7-7.28,2.32-11.19,1.59-2.06-.38-4.03-1.05-5.66-2.43-5.85-4.97-9.84-11.05-11.09-18.75-.52-3.23-.11-6.4.66-9.5,1.3-5.26,2.67-10.51,4.18-15.72,2.06-7.12,5.61-13.55,9.55-19.77,2.44-3.84,4.91-7.67,7.44-11.45,3.79-5.67,8.14-10.87,13.22-15.43.34-.31.76-.54,1.14-.8-.12-.19-.24-.38-.36-.57Zm-40.01,28.96c2.56-3.32,7.21-13.66,7.14-15.75-3.47,4.91-5.48,10.25-7.14,15.75Zm14.34,11.46c.14.07.27.15.41.22,2.14-3.88,4.28-7.75,6.42-11.63-.14-.08-.28-.15-.42-.23-2.65,3.6-4.79,7.48-6.4,11.64Zm-2.71,6.75c-.12-.03-.24-.07-.36-.1l-.73,1.97c.62-.32.88-.79,1.09-1.28.07-.17.01-.39.01-.59Z"/>
      <path class="cls-1" d="m188.52,166.25c.68-1.06,1.39-2.1,2.02-3.19,7.4-12.81,16.57-24.26,26.8-34.89,2.34-2.44,5.01-4.45,7.97-6.1,5.22-2.9,9.04-1.53,11.21,4.04,1.61,4.13,1.36,8.34.11,12.47-.81,2.66-1.74,5.36-3.09,7.76-4.01,7.11-7.41,14.5-10.58,22.01-4.85,11.47-9.69,22.95-14.5,34.43-1.06,2.52-1.63,5.18-1.62,7.93,0,3.02,1.06,4.3,4.01,5.06,2.73.71,5.39.36,8.02-.44,1.68-.52,3.28-1.25,4.96-1.77.52-.16,1.17.08,1.76.13-.06.58.06,1.28-.22,1.72-2.84,4.52-6.97,7.27-12.21,8.02-2.88.41-5.49-.8-7.56-2.92-3.95-4.03-6.08-8.94-6.87-14.46-.97-6.76.35-13.14,3.11-19.34,3.05-6.85,5.71-13.87,8.81-20.69,4.74-10.39,9.7-20.67,14.61-30.98.47-.99,1.21-1.87,1.84-2.78,1.27-1.86,1.27-3.25-.07-5.34-2.48.65-4.31,2.31-5.94,4.16-3.32,3.78-6.68,7.54-9.77,11.51-4.61,5.92-8.78,12.21-13.56,17.99-7.42,8.99-12.71,19.31-18.78,29.13-1.66,2.68-2.56,5.83-3.81,8.76-.34.81-.58,1.68-1.05,2.41-1.47,2.29-4.15,2.55-6.16.69-2.26-2.08-2.44-4.77-2.1-7.53.2-1.65.59-3.31,1.14-4.89,2.11-6.11,4.17-12.22,7.06-18.04,2.23-4.49,3.75-9.33,5.63-13.99,3.34-8.29,6.82-16.53,10.04-24.87,1.23-3.18,1.96-6.56,2.81-9.88.34-1.32.48-2.84-.83-3.74-1.38-.96-2.76-.19-4.04.52-3.24,1.8-5.72,4.45-7.49,7.6-2.34,4.17-4.31,8.54-6.34,12.88-.43.91-.4,2.02-.62,3.04-.35,1.6-1.35,2.08-2.83,1.37-1.54-.74-2.19-2.08-2.36-3.65-.36-3.21-.35-6.43,1.06-9.42,1.36-2.88,2.65-5.87,4.48-8.44,3.33-4.67,7.86-7.9,13.48-9.42,1.07-.29,2.19-.51,3.29-.58,3.9-.24,6.84,1.66,8.18,5.32,1.67,4.54,2.04,9.21.78,13.9-1.38,5.16-2.74,10.3-4.84,15.27-2.17,5.13-3.61,10.56-5.38,15.86-.35,1.04-.72,2.07-1.07,3.11.17.09.33.18.5.27Zm38.84-28.32c-2.58,3.68-7.34,13.96-7.27,15.51,3.14-4.98,5.76-9.98,7.27-15.51Zm-54.27,38.03c.19.08.37.16.56.23.4-1,1.16-1.86.74-3.19-.43.99-.87,1.97-1.3,2.96Zm-2.29,5.34q1.06-1.09.99-2.66c-.45,1.21-.72,1.94-.99,2.66Z"/>
      <path class="cls-1" d="m244.52,15.05c-3.26-.28-3.39-.46-3.16-3.64.18-2.39,1.12-4.48,2.46-6.41,2.13-3.07,7.89-2.69,9.51.71,1.38,2.9,2.01,5.97,1.9,9.28-.2,6.24-1.77,12.26-2.54,18.41-.77,6.16-2.21,12.24-3.38,18.35-1.03,5.33-2.11,10.64-3.15,15.97-.08.43-.01.89-.01,1.73.51-.52.81-.74,1-1.02,6.29-9.15,12.68-18.23,18.8-27.49,4.55-6.88,9.87-13.15,14.86-19.68.48-.63,1.03-1.22,1.56-1.82.78-.88,1.75-1.04,2.84-.7,3.04.98,4.72,4.11,3.74,7.17-.63,1.97-1.55,3.85-2.12,5.83-.86,2.98-1.76,5.98-2.24,9.04-1.57,9.93-2.96,19.9-4.43,29.85-.12.79-.27,1.58-.49,2.34-.63,2.14-.52,4.25.27,6.64.4-.58.76-.95.96-1.39,6.23-13.58,13-26.89,20.53-39.79,5.68-9.73,12.1-19,18.89-27.99,1.92-2.54,4.23-4.78,6.41-7.12,1.19-1.28,1.92-1.26,3.27-.1.24.21.47.43.69.67,2.15,2.34,2.06,3.74-.4,5.79-.98.82-2.09,1.48-3.05,2.32-1.07.95-2.11,1.96-3.01,3.07-1.74,2.17-3.43,4.4-5.05,6.66-5.34,7.47-11.01,14.7-15.33,22.86-3.36,6.35-7.06,12.52-10.34,18.91-3.9,7.6-7.53,15.34-11.22,23.04-.96,2.01-1.75,4.11-2.52,6.2-.87,2.38-1.85,3.05-4.3,2.72-3.69-.5-6.45-3.17-6.71-7.03-.56-8.15-.6-16.28,1.59-24.27.31-1.15.45-2.35.62-3.53.73-5.13,1.42-10.27,2.18-15.4.1-.69.38-1.41.75-2.01,1.35-2.2,1.5-4.65,1.9-7.68-.79.75-1.24,1.1-1.6,1.53-5.19,6.1-9.64,12.73-13.93,19.48-5.53,8.69-10.96,17.44-16.37,26.21-1.04,1.69-1.85,3.54-2.6,5.37-1.55,3.79-4.25,5.27-8.17,4.35-3.06-.73-4.32-2.6-3.53-5.66.74-2.86,1.72-5.65,2.59-8.47,1.47-4.73,2.96-9.45,4.39-14.19.18-.6.99-1.46-.33-1.94-.13-.05-.05-.9.06-1.35.53-2.25.93-4.55,1.69-6.72,2.25-6.39,2.81-13.09,3.91-19.7.7-4.23,1.07-8.51,2.51-12.64.69-1.98.12-4.4.12-6.77Z"/>
      <path class="cls-1" d="m168.93,76.65c0-5.61,1.82-10.86,3.07-16.21,2.19-9.37,6.55-17.81,11.54-25.92,4.23-6.87,8.58-13.68,13.82-19.85,3.06-3.6,6.37-6.95,10.4-9.51,2.45-1.56,5.07-2.67,7.85-3.47,1.86-.54,3.67-.43,5.37.39,3.38,1.63,6.14,3.98,8.09,7.25,1.58,2.67,1.85,5.46.67,8.27-.83,1.97-1.84,3.92-3.06,5.67-3.92,5.65-8.96,10.19-14.61,14.05-1.99,1.36-4.18,2.44-6.73,1.44-.44-.17-.9-.34-1.3-.6-1.39-.9-1.49-1.77-.17-2.82,2-1.59,4.06-3.11,6.15-4.58,5.97-4.21,9.24-10.21,11.32-17.01.12-.38.23-.77.27-1.16.27-2.84-1.73-4.6-4.34-3.49-1.78.76-3.49,1.98-4.87,3.35-5.94,5.88-10.88,12.54-14.85,19.91-4.84,9.01-9.45,18.13-12.98,27.75-2.82,7.68-4.88,15.53-5.52,23.71-.18,2.37.1,4.64,1.36,6.7.98,1.6,2.38,2.63,4.33,2.54,4.78-.23,9.09-1.59,12.23-5.5.2-.25.39-.52.63-.72,5.42-4.38,8.83-10.27,12.08-16.24,4.38-8.04,7.58-16.54,9.31-25.56.45-2.34.53-4.74.75-7.12.06-.63-.04-1.28,0-1.92.11-1.93,1.07-2.6,2.87-1.79,3.28,1.48,5.36,3.99,5.78,7.64.47,4.11-.25,8.11-1.22,12.09-1.95,7.99-5.44,15.33-9.49,22.43-3.42,5.98-7.11,11.76-12.05,16.64-3.4,3.35-7.2,6.07-11.83,7.47-4.92,1.48-9.45.79-13.62-2.29-6.1-4.51-9.4-10.73-11.04-17.96-.26-1.15-.14-2.38-.2-3.58Zm9.79-28.64c2.33-2.83,7.9-13.15,8.11-14.96-3.22,4.71-6.28,9.51-8.11,14.96Z"/>
      <path class="cls-1" d="m332.84,140.74c1.82-2.98,3.64-5.95,5.47-8.93,4.02-2.61,4.96-7.02,6.44-11.09.8-2.21-.79-3.72-2.01-5.16-.84-.99-1.97-.74-2.88.26-.26.28-.45.62-.92,1.28-.14-.6-.2-.85-.25-1.09-.06-.3-.12-.6-.24-1.15-.76.11-1.47.12-2.1.33-5.69,1.91-10.92,4.53-14.51,9.62-.09.13-.21.25-.32.36-6.06,5.85-6.82,12.9-4.51,20.55.85,2.82,2.06,5.53,3.11,8.29.38,1.01.78,1.88.53,3.15-.21,1.08.54,2.46,1.13,3.57,1.22,2.33,2.63,4.57,3.94,6.85,1.71,2.99,3.28,6.04,3.99,9.45,1.43,6.84-.05,12.98-4.37,18.46-.97,1.23-2.22,2.26-2.45,4.01-.08.59-.79,1.19-1.35,1.6-5.2,3.88-10.98,6.42-17.42,7.47-3.93.64-7.79.59-11.62-.52-4.34-1.25-7.83-3.54-9.58-7.94-1.07-2.71-.98-5.51-.6-8.28.75-5.55,3.19-10.33,7.12-14.34,1.06-1.08,2.07-2.23,3.22-3.22.77-.67,1.69-1.18,2.6-1.66.73-.39,1.69-.54,2.19.2.39.58.47,1.47.41,2.19-.06.68-.46,1.35-.75,2-.89,1.96-1.82,3.91-2.69,5.88-1.76,4.02-2.52,8.24-2.25,12.62.31,5.15,3.39,7.65,8.46,6.98,8.49-1.12,16.35-8.25,18.25-16.57.7-3.07.26-6.08-.84-8.95-1.92-4.99-4.01-9.92-6.05-14.86-1.67-4.06-3.42-8.09-5.05-12.17-2.04-5.11-2.88-10.45-2.81-15.94.02-1.48.37-2.78,1.26-4.03.62-.88.85-2.02,1.29-3.04.65-1.52,1.08-3.23,2.05-4.52,3.26-4.3,7.19-7.94,11.87-10.67,9.34-5.46,18.57-4.8,27.61.79,3.02,1.87,4.23,4.94,4.72,8.25.14.97-.37,2.23-.97,3.09-3.74,5.38-7.36,10.87-12.49,15.09-1.15.95-2.46,1.77-3.81,2.4-.67.31-1.6.05-2.41.05-.13-.22-.25-.45-.38-.67Zm-49.13,55.75c.84-2.34,1.11-5.82.68-7.57-1.04,2.53-1.08,5.03-.68,7.57Z"/>
      <path class="cls-1" d="m51,140.87c.36-.74.7-1.52,1.12-2.27.87-1.53,1.69-3.09,2.69-4.53.71-1.02,1.67-1.86,2.51-2.79.43-.47.97-.88,1.25-1.43,1.29-2.56,2.6-5.13,3.73-7.77.92-2.16.27-4.95-1.58-6.38-1.5-1.15-3.39-1.34-5.26-1.02-3.21.55-6.01,2.1-8.77,3.71-3.85,2.25-7.1,5.19-9.58,8.9-3.43,5.14-4.37,10.78-2.67,16.7,1.05,3.67,2.56,7.2,3.87,10.8.26.71.31,1.36.27,2.17-.07,1.32.51,2.79,1.15,4.03,1.39,2.7,2.86,5.36,4.52,7.9,2.61,4.01,3.22,8.63,4.4,13.09.06.22.09.47.05.69-.97,4.8-2.11,9.53-5.75,13.18-1.01,1.01-1.94,2.01-2.21,3.59-.14.79-1.06,1.61-1.82,2.11-6.8,4.45-14.1,7.51-22.38,7.42-4.22-.05-8.14-1.24-11.73-3.62-3.09-2.04-4.43-4.89-4.71-8.43-.48-6.25,1.16-11.9,5.01-16.82,1.72-2.19,3.71-4.18,5.68-6.16.65-.65,1.57-1.13,2.45-1.41,1.9-.61,3.08.51,2.44,2.38-.67,1.96-1.57,3.84-2.48,5.71-1.8,3.7-3.15,7.52-3.24,11.67-.04,1.67-.05,3.38.25,5,.56,2.97,2.78,4.99,5.8,5.15,1.8.1,3.74,0,5.42-.59,8.01-2.8,13.33-8.21,15.36-16.61.76-3.12-.04-6.05-1.18-8.88-3.19-7.92-6.39-15.84-9.75-23.7-2.46-5.74-3.86-11.65-3.87-17.89,0-1.86.18-3.6,1.41-5.19.63-.82.7-2.07,1.04-3.12.31-.97.41-2.12,1-2.88,5.1-6.53,11.1-11.88,19.19-14.5,4.9-1.58,9.72-1.63,14.52.31,2,.81,4.01,1.59,5.94,2.53,3.59,1.74,5.02,5.03,5.59,8.69.16,1.06-.35,2.38-.93,3.36-3.44,5.83-8.16,10.63-12.92,15.37-.72.72-1.65,1.29-2.57,1.74-.99.49-2.09.88-3.25-.26ZM2.8,188.57c-.19-.04-.38-.07-.57-.11-.55,2.63-1.58,5.21-.34,8.01.3-2.63.61-5.27.91-7.9Z"/>
      <path class="cls-1" d="m271.18,191.07c-.22.9-.28,1.69-.62,2.35-.46.92-1.02,1.83-1.72,2.58-5.08,5.47-10.57,10.46-17.12,14.14-1.8,1.01-3.74,1.8-5.7,2.47-6.63,2.26-14.3-2.65-15.79-8.51-.48-1.9-.26-3.59.56-5.33.98-2.09,1.91-4.21,2.69-6.38,2.66-7.36,5.25-14.74,7.85-22.11.26-.73.42-1.5.65-2.32-1.19-.65-2.26-1.16-3.25-1.8-1.04-.67-1.93-1.52-1.61-2.94.31-1.4,1.51-1.8,2.7-2.02.93-.17,1.91-.13,2.87-.17,2.15-.09,3.54-1.06,4.2-3.21,1.71-5.57,3.52-11.11,5.31-16.65,1.15-3.57,2.34-7.13,3.5-10.7.24-.73.4-1.49.61-2.28-1.9-.24-3.58-.33-5.19-.69-.97-.22-1.97-.72-2.75-1.34-1.4-1.11-1.65-2.74-1.19-4.36.44-1.55,1.86-1.83,3.26-1.94,1.99-.15,3.98-.29,5.98-.41,2.78-.18,3.93-.9,4.52-3.7.89-4.23,3.88-4.35,6.64-2.8,1.29.73,2.46,1.78,3.44,2.9.78.9,1.55,1.22,2.67,1.09,8.41-.94,16.82-1.87,25.23-2.78,2.06-.22,4.13-.39,6.2-.57.48-.04,1-.17,1.42-.03.46.16.97.52,1.18.93.1.2-.35.92-.7,1.06-1.47.61-2.98,1.14-4.49,1.63-2.19.7-4.39,1.4-6.61,2-1.77.48-3.58.79-5.36,1.22-4.02.97-8.02,2.02-12.06,2.93-2.41.54-4.87.85-7.3,1.33-1.86.36-3.02,1.43-3.7,3.31-3.53,9.84-7.17,19.65-10.76,29.47-.16.44-.25.9-.48,1.74,2.99-.23,5.73-.41,8.47-.65,2.86-.25,5.71-.59,8.58-.84,2.69-.23,5.36-.95,8.28-.6-.64,1.71-1.78,2.19-3.03,2.51-1.39.35-2.78.69-4.17,1.03-2.09.51-4.18,1.02-6.27,1.52-2.48.6-4.95,1.23-7.44,1.76-1.16.25-2.36.36-3.54.44-2.62.16-3.1.44-3.96,2.99-2.09,6.2-4.09,12.43-6.21,18.63-1.6,4.68-3.32,9.33-4.99,13.99-.54,1.52-.94,3.03-.14,4.94,1.29-.47,2.6-.79,3.75-1.4,7.06-3.73,14.07-7.54,21.12-11.3,1.23-.66,2.38-1.67,4.44-1.12Zm-21.77-35.83l.47.17c1.44-2.52,2.37-5.22,3.02-8.03-.19-.07-.39-.14-.58-.21-.97,2.69-1.94,5.38-2.91,8.07Z"/>
      <path class="cls-1" d="m115.36,46.76c-.06,1.71-1.17,1.81-2.16,2.05-4.57,1.1-9.14,2.21-13.72,3.28-2.4.56-4.81,1.11-7.24,1.56-1.85.35-2.97,1.29-3.4,3.18-.55,2.41-1.22,4.79-1.89,7.17-.28.99-.51,2.08-1.08,2.9-2.41,3.43-3.01,7.5-4.19,11.36-1.33,4.35-2.51,8.75-3.91,13.07-.64,1.95-1.62,3.8-2.55,5.65-.66,1.3-1.84,1.71-3.25,1.36-2.92-.72-5.29-2.29-6.87-4.83-.55-.88-.84-2.16-.69-3.17.28-1.88.83-3.75,1.53-5.52,1.46-3.7,3.16-7.31,4.65-11.01,1.87-4.67,3.63-9.38,5.42-14.07.25-.66.44-1.34.7-2.16-.8-.38-1.51-.69-2.2-1.04-.78-.4-1.57-.78-2.3-1.26-.85-.56-1.32-1.37-1.15-2.45.17-1.13,1.01-1.62,1.95-1.88,1.15-.31,2.34-.48,3.52-.66,2-.3,3.35-1.27,3.96-3.29,1.75-5.83,4.62-11.2,6.99-16.78,1.67-3.93,2.71-8.13,4.09-12.39-2.71-.46-5.12-.86-7.52-1.28-1.34-.23-2.35-.93-2.94-2.2-1.01-2.17-.07-4.32,2.28-4.79,1.63-.33,3.33-.35,5-.5,1.59-.14,3.18-.28,4.77-.38,1.19-.08,1.88-.73,2.24-1.83.37-1.14.7-2.3,1.19-3.38,1.07-2.33,2.96-2.84,5.09-1.43,1.81,1.2,2.81,3.01,3.69,5.15,11.53-.35,22.98-1.76,34.4-3.57.08.16.17.31.25.47-.39.42-.71.95-1.17,1.24-1.55.97-3.17,1.85-4.75,2.79-1.16.69-2.26,1.48-3.44,2.14-.9.5-1.83,1.03-2.82,1.26-5.58,1.33-11.17,2.61-16.77,3.81-1.79.38-3.63.65-5.46.68-2.42.04-3.57,1.26-4.22,3.44-1.37,4.58-2.81,9.15-4.33,13.68-1.06,3.17-2.32,6.29-3.48,9.43-.49,1.34-.97,2.69-1.59,4.41,1.15.08,2.04.22,2.93.19,6.39-.19,12.77-.42,19.16-.62.37-.01.75.12,1.31.21Z"/>
      <path class="cls-1" d="m135.96,74.73c.73-.1,1.27-.13,1.79-.25,4.98-1.1,9.91-2.49,14.94-3.24,4.16-.63,8.43-.51,12.65-.72.24-.01.53-.05.71.06.51.31,1.17.61,1.38,1.08.15.34-.17,1.15-.53,1.42-1.27.95-2.55,2.04-4.01,2.55-3.31,1.14-6.68,2.15-10.11,2.86-7.16,1.5-14,3.71-20.32,7.49-2.25,1.35-3.92,3.25-5.67,5.1-.16.17-.39.38-.4.58-.06,1.81-1.42,2.37-2.79,2.85-1.69.59-3.44.78-5.15.06-2.25-.95-3.4-3.32-2.59-5.76,1.51-4.58,4.01-8.35,8.98-9.82,2.81-.83,4.12-2.79,4.32-5.66.1-1.34.22-2.73.62-4,2.29-7.25,3.74-14.66,4.92-22.17.76-4.86,1.88-9.77,3.67-14.34,2.07-5.27,2.73-10.94,5.11-16.08,1.11-2.38,1.94-4.89,2.97-7.31,1.05-2.47,2.69-4.54,4.68-6.29C153.48,1.06,156.19-.06,159.43,0c9.99.21,16.34,8.03,14.18,17.75-1.12,5.02-3.48,9.41-7.37,12.89-2.21,1.98-4.77,2.84-7.72,2.38-1.54-.24-2.03-.9-1.38-2.3,1.16-2.52,2.54-4.95,3.83-7.42.11-.21.34-.35.44-.57,2.03-4.43,3.56-9.03,4.36-13.84.2-1.18-.34-2.21-1.5-2.75-1.11-.52-2.12-.09-2.82.71-1.69,1.91-3.51,3.76-4.81,5.92-1.73,2.85-3.22,5.88-4.47,8.98-3.74,9.27-6.19,18.95-9,28.51-2.23,7.57-4.52,15.13-6.78,22.7-.15.51-.25,1.03-.42,1.77Zm11.69-62.35c-.17-.07-.34-.15-.51-.22-2.36,3.65-4.09,7.57-5.1,11.81.16.07.32.14.48.21,1.71-3.93,3.42-7.86,5.12-11.8Z"/>
      <path class="cls-1" d="m261.1,37.69c1.32.06,2.47-.35,3.17.94-2.15,1.09-2.37,1.04-3.17-.94Z"/>
    </g>
  </g>
</svg>