<?xml version="1.0"?>
<svg width="99.21" height="99.24" xmlns="http://www.w3.org/2000/svg" xmlns:svg="http://www.w3.org/2000/svg" data-name="Capa 2">
 <defs>
  <style>.cls-1 {
        stroke-width: 0px;
      }</style>
 </defs>
 <g class="layer">
  <title>Layer 1</title>
  <g data-name="Capa 1" id="Capa_1-2">
   <g id="svg_1">
    <path class="cls-1" d="m49.66,99.24c-27.82,-0.16 -49.52,-22.37 -49.66,-49.42c-0.13,-26.56 20.82,-49.72 49.43,-49.82c28.6,-0.1 49.69,22.89 49.78,49.48c0.1,27.37 -22.11,49.65 -49.55,49.77l0,-0.01zm0.01,-4.53c24.02,0.23 45.08,-19.61 45.09,-45.13c0.01,-24.47 -19.8,-45.12 -45.12,-45.15c-25.42,-0.02 -45.3,20.75 -45.2,45.29c0.1,25.54 21.22,45.3 45.23,44.99z" fill="#efb810" id="svg_2"/>
    <path class="cls-1" d="m49.47,76.86c-4.89,0 -9.79,0 -14.68,0c-0.59,0 -1.2,0.04 -1.77,-0.08c-1.12,-0.24 -1.67,-1.04 -1.32,-2.15c1.51,-4.8 2.63,-9.75 5.26,-14.12c0.91,-1.51 2,-2.95 3.2,-4.25c4.97,-5.39 14.13,-5.47 19.33,0.54c2.22,2.56 3.8,5.48 4.94,8.63c1.03,2.85 1.92,5.76 2.8,8.66c0.55,1.81 -0.07,2.64 -1.96,2.74c-1.11,0.06 -2.22,0.02 -3.34,0.02c-4.15,0 -8.3,0 -12.45,0l-0.01,0.01z" fill="#efb810" id="svg_3"/>
    <path class="cls-1" d="m55.91,50.92c1.28,-1.56 2.5,-3.03 3.9,-4.73c3.03,-0.15 6,0.68 8.61,2.72c2.45,1.91 4.27,4.38 5.41,7.21c1.61,3.97 2.99,8.04 4.36,12.1c0.53,1.58 -0.21,2.54 -2.01,2.62c-2.35,0.11 -4.72,0.03 -6.84,0.03c-1.71,-4.01 -3.16,-7.89 -5,-11.57c-1.85,-3.71 -4.72,-6.58 -8.45,-8.37l0.02,-0.01z" fill="#efb810" id="svg_4"/>
    <path class="cls-1" d="m39.23,46.16c1.34,1.63 2.56,3.1 3.82,4.64c0,-0.01 0,0.16 -0.09,0.21c-4.56,2.35 -7.51,6.16 -9.57,10.72c-1,2.22 -1.75,4.55 -2.59,6.84c-0.26,0.69 -0.47,1.39 -0.77,2.27c-2.52,0 -5.02,0.1 -7.51,-0.04c-1.49,-0.08 -2.08,-1.05 -1.65,-2.47c1.27,-4.25 2.32,-8.6 4.5,-12.49c1.14,-2.05 2.5,-4.04 4.08,-5.76c2.64,-2.89 6.11,-4 9.79,-3.91l-0.01,-0.01z" fill="#efb810" id="svg_5"/>
    <path class="cls-1" d="m41.26,41.66c-0.02,-4.82 3.57,-8.45 8.34,-8.43c4.64,0.02 8.27,3.64 8.3,8.29c0.04,4.73 -3.67,8.47 -8.38,8.46c-4.65,-0.02 -8.24,-3.63 -8.26,-8.32z" fill="#efb810" id="svg_6"/>
    <path class="cls-1" d="m80.33,66.3c-0.55,-1.69 -0.97,-3.33 -1.62,-4.89c-1.26,-3.07 -2.47,-6.19 -4.03,-9.1c-1.64,-3.04 -4.09,-5.42 -7.22,-7.03c-0.25,-0.13 -0.46,-0.32 -0.81,-0.57c0.52,-0.48 1.05,-0.8 1.33,-1.27c1.28,-2.11 3.09,-1.88 5.03,-1.25c2.92,0.95 5.33,2.69 7,5.21c1.49,2.27 2.84,4.69 3.88,7.2c1.19,2.86 1.99,5.88 2.91,8.85c0.51,1.63 -0.06,2.63 -1.74,2.82c-1.52,0.17 -3.08,0.04 -4.74,0.04l0.01,-0.01z" fill="#efb810" id="svg_7"/>
    <path class="cls-1" d="m18.65,66.31c-1.7,0 -3.19,0.12 -4.65,-0.03c-1.64,-0.17 -2.29,-1.1 -1.77,-2.64c1.42,-4.2 2.78,-8.44 4.55,-12.49c0.92,-2.11 2.48,-4.05 4.1,-5.73c1.24,-1.28 2.97,-2.17 4.61,-2.97c2.13,-1.05 4.25,-1.28 5.73,1.2c0.22,0.36 0.64,0.6 1,0.92c-0.14,0.21 -0.22,0.46 -0.38,0.55c-3.88,1.94 -6.59,5.05 -8.43,8.86c-1.47,3.05 -2.57,6.29 -3.81,9.45c-0.35,0.89 -0.6,1.81 -0.95,2.88z" fill="#efb810" id="svg_8"/>
    <path class="cls-1" d="m38.73,43.83c-4.37,-0.05 -7.69,-2.88 -8.37,-6.85c-0.66,-3.86 1.46,-7.66 5.06,-9.2c3.61,-1.55 8.54,-0.01 10.2,3.35c-5.06,2.6 -7.62,6.72 -6.88,12.7l-0.01,0z" fill="#efb810" id="svg_9"/>
    <path class="cls-1" d="m60.38,43.75c0.68,-5.92 -1.77,-9.99 -6.85,-12.56c1.91,-3.49 6.13,-4.95 9.93,-3.5c3.82,1.46 6.04,5.48 5.21,9.44c-0.87,4.12 -4.2,6.84 -8.3,6.61l0.01,0.01z" fill="#efb810" id="svg_10"/>
    <path class="cls-1" d="m71.02,38.94c0.66,-3 0.59,-5.87 -0.89,-8.59c-1.44,-2.64 -3.69,-4.31 -6.45,-5.43c2.16,-2.39 5.57,-3.01 8.73,-1.67c3.36,1.43 5.35,4.81 5.03,8.55c-0.3,3.51 -2.7,6.25 -6.42,7.14z" fill="#efb810" id="svg_11"/>
    <path class="cls-1" d="m28.04,38.91c-3.12,-0.23 -6.16,-3.87 -6.35,-6.98c-0.23,-3.84 1.45,-7.02 4.72,-8.55c3.18,-1.49 6.65,-0.94 9.02,1.51c-6.13,2.65 -8.67,7.26 -7.39,14.03l0,-0.01z" fill="#efb810" id="svg_12"/>
    <path class="cls-1" d="m55.48,25.19c-1.51,1.58 -2.99,3.09 -4.42,4.66c-0.87,0.96 -2.14,0.99 -3,0.06c-1.43,-1.56 -2.91,-3.08 -4.44,-4.69c1.71,-3.26 9.27,-3.92 11.86,-0.02l0,-0.01z" fill="#efb810" id="svg_13"/>
   </g>
  </g>
 </g>
</svg>