<?xml version="1.0"?>
<svg width="99.21" height="99.26" xmlns="http://www.w3.org/2000/svg" xmlns:svg="http://www.w3.org/2000/svg" data-name="Capa 2">
 <defs>
  <style>.cls-1 {
        stroke-width: 0px;
      }</style>
 </defs>
 <g class="layer">
  <title>Layer 1</title>
  <g data-name="Capa 1" id="Capa_1-2">
   <g id="svg_1">
    <path class="cls-1" d="m49.76,0c27.45,0.15 49.61,22.46 49.45,49.82c-0.16,27.41 -22.53,49.59 -49.87,49.44c-27.35,-0.16 -49.56,-22.65 -49.34,-49.97c0.23,-27.35 22.52,-49.43 49.76,-49.29zm-0.06,4.5c-24.24,-0.26 -45.16,19.62 -45.24,44.96c-0.07,24.95 20.21,45.35 45.17,45.3c25.18,-0.05 45.11,-20.5 45.12,-45.12c0.01,-25.37 -20.82,-45.3 -45.06,-45.15l0.01,0.01z" fill="#efb810" id="svg_2"/>
    <path class="cls-1" d="m38.33,41.4c1.18,-0.21 1.68,0.26 1.91,1.17c0.78,3.09 2.22,5.77 4.67,7.89c0.45,0.39 0.63,1.3 0.63,1.96c0,1.25 -0.21,2.5 -0.36,3.75c-0.13,1.03 0.23,1.64 1.25,2.02c2.18,0.82 4.32,0.82 6.5,0.04c1.06,-0.38 1.59,-1.02 1.4,-2.16c-0.09,-0.58 -0.18,-1.17 -0.27,-1.75c-0.33,-1.98 -0.18,-3.62 1.64,-5.09c1.93,-1.56 2.76,-3.98 3.46,-6.35c0.34,-1.15 0.36,-1.15 1.95,-1.64c-0.34,3.35 -1.63,6.16 -3.65,8.67c-0.32,0.4 -0.67,0.81 -1.07,1.12c-0.73,0.58 -0.86,1.28 -0.76,2.17c0.44,3.98 0.46,3.9 4.24,5.57c2.76,1.22 5.46,2.62 8.11,4.07c2.69,1.47 3.96,3.82 4.02,6.92c0.07,3.71 -0.33,7.36 -0.98,11.08l-42.53,0c-0.19,-1.04 -0.45,-2.09 -0.55,-3.17c-0.29,-3.08 -0.75,-6.15 -0.32,-9.28c0.26,-1.89 0.93,-3.48 2.47,-4.51c1.96,-1.32 3.99,-2.54 6.08,-3.63c1.77,-0.92 3.63,-1.66 5.51,-2.32c1.23,-0.43 1.82,-1.13 1.85,-2.39c0,-0.37 0.06,-0.74 0.13,-1.1c0.33,-1.71 -0.09,-3.02 -1.41,-4.34c-2.36,-2.35 -3.47,-5.39 -3.93,-8.72l0.01,0.02zm23.51,20.01c-1.78,-0.73 -3.35,-1.34 -4.89,-2.02c-0.96,-0.42 -1.78,-0.33 -2.74,0.12c-2.97,1.39 -5.99,1.34 -9.01,0.03c-0.52,-0.23 -1.17,-0.57 -1.64,-0.43c-2.03,0.59 -4.04,1.27 -5.93,2.5c0.62,1.73 1.22,3.32 1.75,4.92c0.28,0.84 0.83,1.15 1.66,1.15c5.77,0 11.53,0 17.3,0c0.83,0 1.42,-0.3 1.7,-1.12c0.55,-1.6 1.11,-3.2 1.79,-5.16l0.01,0.01zm3.32,1.6c-3.22,5.31 -2.58,10.67 -2.34,16.09l6.75,0c0.51,-3.89 1.26,-7.59 0.4,-11.36c-0.17,-0.75 -0.6,-1.56 -1.17,-2.07c-1.08,-0.97 -2.35,-1.74 -3.64,-2.66zm-35.52,16.11l7.06,0c-0.17,-5.47 0.93,-10.91 -2.39,-15.99c-0.73,0.44 -1.47,0.88 -2.22,1.32c-2.03,1.2 -3.02,2.99 -2.92,5.35c0.14,3.02 0.3,6.03 0.46,9.32l0.01,0z" fill="#efb810" id="svg_3"/>
    <path class="cls-1" d="m37.29,38.11c0.11,-1.16 0.27,-2.17 0.28,-3.18c0.09,-5.42 3.76,-11.15 10.95,-11.95c6.12,-0.68 11.56,3.34 12.94,9.14c0.25,1.06 0.2,2.2 0.33,3.29c0.1,0.85 0.25,1.69 0.39,2.59c-3.61,2.06 -20.07,2.18 -24.89,0.11z" fill="#efb810" id="svg_4"/>
   </g>
  </g>
 </g>
</svg>