<?xml version="1.0"?>
<svg width="99.21" height="99.25" xmlns="http://www.w3.org/2000/svg" xmlns:svg="http://www.w3.org/2000/svg" data-name="Capa 2">
 <defs>
  <style>.cls-1 {
        stroke-width: 0px;
      }</style>
 </defs>
 <g class="layer">
  <title>Layer 1</title>
  <g data-name="Capa 1" id="Capa_1-2">
   <g id="svg_1">
    <path class="cls-1" d="m49.73,0c26.67,0.1 49.6,21.28 49.48,49.8c-0.12,28.43 -22.89,49.58 -49.84,49.44c-27.13,-0.13 -49.43,-21.66 -49.37,-49.68c0.06,-28.61 23.15,-49.6 49.73,-49.56zm-45.24,49.56c-0.28,23.96 19.27,45.16 44.99,45.23c25.78,0.07 45.33,-21.13 45.29,-45.21c-0.04,-24.88 -20.53,-45.12 -45.15,-45.13c-24.65,0 -45.28,20.26 -45.13,45.1l0,0.01z" fill="#efb810" id="svg_2"/>
    <path class="cls-1" d="m59.02,35.88c0.13,-0.11 0.5,-0.46 0.89,-0.78c0.99,-0.8 1.36,-1.62 1.03,-3.05c-0.74,-3.17 1.56,-6.37 4.7,-6.97c3.12,-0.61 6.32,1.37 7.06,4.35c0.81,3.26 -0.91,6.55 -4.09,7.34c-1.37,0.34 -2.9,0.06 -4.7,0.06c-0.46,0.57 -1.15,1.43 -1.84,2.29c1.07,2.52 2.24,5.27 3.52,8.26l2.98,0c2.77,-3.55 5,-4.57 7.94,-3.58c2.35,0.79 4.17,3.34 4.12,5.79c-0.04,2.54 -1.81,4.9 -4.25,5.68c-2.94,0.94 -5.22,-0.12 -7.8,-3.66c-0.39,-0.03 -0.83,-0.08 -1.27,-0.09c-0.59,-0.02 -1.18,0 -1.67,0c-1.2,2.89 -2.35,5.66 -3.61,8.69c0.58,0.47 1.44,1.16 2.57,2.08c0.03,0 0.52,-0.12 1.01,-0.21c2.72,-0.51 5.34,0.7 6.59,3.03c1.25,2.33 0.81,5.35 -1.04,7.2c-1.87,1.86 -4.85,2.28 -7.19,1.01c-2.36,-1.28 -3.67,-3.88 -2.95,-6.57c0.6,-2.23 -1.19,-2.72 -1.96,-3.61c-2.9,1.22 -5.6,2.36 -8.51,3.58l0,3.02c3.59,2.79 4.57,4.98 3.54,7.93c-0.86,2.44 -3.25,4.13 -5.79,4.08c-2.55,-0.05 -4.95,-1.84 -5.69,-4.24c-0.93,-3.04 0.18,-5.34 3.82,-7.78c0,-0.66 0.01,-1.4 0,-2.14c0,-0.36 -0.07,-0.72 -0.08,-0.82c-2.95,-1.23 -5.72,-2.4 -8.7,-3.65c-0.52,0.61 -1.23,1.44 -2.09,2.45c0.35,1.51 0.79,3.4 -0.25,5.08c-0.64,1.03 -1.54,2.03 -2.56,2.65c-2.29,1.4 -5.28,0.86 -7.15,-1.03c-1.9,-1.92 -2.29,-4.75 -0.98,-7.17c1.43,-2.65 3.84,-3.5 8.03,-2.74c0.69,-0.74 1.44,-1.54 2.1,-2.23c-1.15,-2.74 -2.28,-5.43 -3.53,-8.42l-3.13,0c-0.4,0.57 -0.77,1.2 -1.24,1.76c-2.24,2.64 -6.21,2.84 -8.72,0.47c-2.6,-2.44 -2.56,-6.49 0.08,-8.88c2.55,-2.31 6.52,-2.04 8.72,0.61c1.77,2.13 1.84,2.15 4.33,1.63c1.19,-2.86 2.31,-5.57 3.56,-8.55c-0.57,-0.49 -1.41,-1.2 -2.34,-2c-4.28,0.63 -6.6,-0.22 -7.97,-3.03c-1.2,-2.45 -0.69,-5.29 1.29,-7.13c1.88,-1.75 4.71,-2.1 7.02,-0.87c2.68,1.43 3.54,3.85 2.76,7.98c0.78,0.69 1.61,1.41 2.4,2.09c2.63,-1.1 5.4,-2.25 8.36,-3.48l0,-3.02c-3.61,-2.52 -4.68,-4.84 -3.65,-7.9c0.82,-2.42 3.22,-4.11 5.79,-4.08c2.68,0.04 4.94,1.79 5.73,4.43c0.85,2.86 -0.29,5.24 -3.64,7.43l0,3.16c2.84,1.19 5.55,2.32 8.47,3.54l-0.02,0.01zm-9.09,24.24c0.74,-2.19 1.44,-4.26 2.24,-6.6c2.1,1.7 5.01,1.49 6.64,3.77c4.04,-4.68 3.61,-12.6 -1.44,-17.34c-4.91,-4.61 -12.62,-4.73 -17.64,-0.34c-5.66,4.94 -5.61,13.33 -1.81,17.73c1.62,-2.3 4.54,-2.12 6.67,-3.82c0.77,2.3 1.45,4.35 2.19,6.54c1.09,-1.19 0.96,-2.14 0.45,-3.26c-0.47,-1.03 0.13,-1.71 1.26,-1.65c1,0.05 1.47,0.65 1.01,1.68c-0.51,1.15 -0.51,2.12 0.42,3.3l0.01,-0.01zm-27.76,-12.83c-1.2,0.06 -2.18,1.17 -2.09,2.38c0.09,1.23 1.19,2.16 2.41,2.04c1.1,-0.11 2.04,-1.16 2.01,-2.25c-0.03,-1.17 -1.17,-2.23 -2.33,-2.17zm28.4,28.32c-0.02,-1.27 -1.01,-2.21 -2.28,-2.15c-1.12,0.05 -2.1,1.03 -2.14,2.13c-0.03,1.14 1.08,2.3 2.22,2.31c1.19,0 2.21,-1.06 2.2,-2.28l0,-0.01zm26.16,-26.14c-0.02,-1.19 -1.14,-2.24 -2.31,-2.18c-1.18,0.06 -2.21,1.21 -2.12,2.38c0.08,1.11 1.09,2.04 2.21,2.05c1.22,0 2.25,-1.03 2.23,-2.24l-0.01,-0.01zm-28.38,-28.3c-1.17,0.02 -2.25,1.15 -2.21,2.3c0.05,1.17 1.19,2.19 2.38,2.12c1.15,-0.07 2.03,-1.01 2.04,-2.18c0.01,-1.24 -1,-2.27 -2.21,-2.24zm-16.18,9.96c0.05,-1.2 -0.96,-2.24 -2.21,-2.26c-1.22,-0.02 -2.11,0.78 -2.2,1.98c-0.1,1.28 0.79,2.33 2.03,2.4c1.19,0.07 2.33,-0.94 2.38,-2.12zm34.7,2.13c1.22,0 2.26,-1.04 2.23,-2.26c-0.02,-1.14 -0.95,-2.08 -2.11,-2.14c-1.27,-0.07 -2.29,0.87 -2.32,2.12c-0.03,1.26 0.94,2.26 2.19,2.27l0.01,0.01zm2.23,34.64c-0.06,-1.22 -1.15,-2.18 -2.38,-2.1c-1.24,0.08 -2.16,1.16 -2.04,2.4c0.11,1.15 1.09,2.03 2.24,2c1.22,-0.03 2.24,-1.1 2.18,-2.31l0,0.01zm-39.09,-2.1c-1.28,-0.06 -2.26,0.87 -2.27,2.15c-0.02,1.21 0.81,2.13 1.98,2.23c1.2,0.1 2.35,-0.86 2.44,-2.05c0.09,-1.17 -0.93,-2.28 -2.15,-2.34l0,0.01z" fill="#efb810" id="svg_3"/>
    <path class="cls-1" d="m53.3,44.82c0.15,0.68 0.3,1.36 0.45,2.04c0.02,0.07 0.05,0.14 0.06,0.21c0.2,1.87 -2.38,5.98 -4.18,6.65c-1.64,0.61 -3.52,0 -4.62,-1.71c-0.72,-1.1 -1.29,-2.32 -1.77,-3.55c-0.22,-0.57 -0.11,-1.28 -0.09,-1.92c0.02,-0.57 0.19,-1.14 0.16,-1.71c-0.13,-2.4 1.13,-3.95 3.11,-4.95c1.92,-0.97 3.65,-0.47 5.34,0.86c1.37,1.09 1.98,2.32 1.55,4.06l-0.01,0.02z" fill="#efb810" id="svg_4"/>
   </g>
  </g>
 </g>
</svg>