<?xml version="1.0"?>
<svg width="99.21" height="99.24" xmlns="http://www.w3.org/2000/svg" xmlns:svg="http://www.w3.org/2000/svg" data-name="Capa 2">
 <defs>
  <style>.cls-1 {
        stroke-width: 0px;
      }</style>
 </defs>
 <g class="layer">
  <title>Layer 1</title>
  <g data-name="Capa 1" id="Capa_1-2">
   <g id="svg_1">
    <path class="cls-1" d="m49.6,99.24c-28.05,-0.21 -49.63,-22.72 -49.6,-49.71c0.03,-26.53 21.1,-49.6 49.72,-49.53c28.57,0.07 49.47,23.14 49.49,49.54c0.03,26.94 -21.55,49.5 -49.61,49.69l0,0.01zm-0.1,-4.53c23.98,0.33 45.17,-19.36 45.26,-44.94c0.08,-24.99 -20.23,-45.37 -45.15,-45.34c-24.81,0.03 -45.01,20.13 -45.15,44.89c-0.14,25.63 20.97,45.6 45.04,45.39z" fill="#efb810" id="svg_2"/>
    <path class="cls-1" d="m76.43,61.64c2.56,1.27 5.03,2.45 7.45,3.72c0.6,0.31 1.41,0.87 1.49,1.41c0.18,1.21 0,2.49 -0.14,3.73c-0.02,0.2 -0.57,0.44 -0.9,0.49c-0.58,0.09 -1.18,0.05 -1.77,0.05c-21.27,0 -42.53,0 -63.8,0c-0.44,0 -0.89,0.02 -1.33,0c-1.34,-0.09 -1.64,-0.4 -1.75,-1.76c-0.23,-2.81 -0.13,-2.99 2.42,-4.29c1.65,-0.84 3.27,-1.75 4.96,-2.49c1.2,-0.53 1.55,-1.3 1.54,-2.57c-0.05,-8.75 -0.03,-17.49 -0.03,-26.24c0,-2.89 0,-5.78 0,-8.67c0.01,-2.47 0.14,-2.61 2.67,-2.61c13.26,0 26.53,0 39.79,0c2.3,0 4.59,-0.01 6.89,0c2.37,0.02 2.51,0.15 2.51,2.53c0,11.27 0,22.53 0,33.8l0,2.93l0,-0.03zm-2.35,-0.47l0,-36.36c-3.25,-0.48 -45.6,-0.31 -47.16,0.17l0,36.19l47.16,0zm4.62,4.45c-1.69,-1.12 -3.21,-2.24 -5.31,-2.23c-15.25,0.07 -30.51,0.06 -45.76,0.01c-2.12,0 -3.68,0.98 -5.65,2.22l56.72,0zm4.45,3.07c0,-0.22 0.02,-0.44 0.03,-0.66c-0.83,-0.03 -1.66,-0.09 -2.49,-0.09c-20.06,0 -40.13,0 -60.19,0c-0.52,0 -1.04,-0.05 -1.55,0.02c-0.35,0.05 -0.67,0.27 -1,0.41c0.03,0.11 0.06,0.22 0.08,0.32l65.12,0z" fill="#efb810" id="svg_3"/>
    <path class="cls-1" d="m50.65,27.02c5.77,0 11.55,0 17.32,0c2.3,0 2.39,0.1 2.4,2.36c0.01,7.62 0.01,15.25 0,22.87c0,2.33 -0.03,2.35 -2.37,2.35c-11.69,0 -23.39,0 -35.08,0c-2.24,0 -2.29,-0.05 -2.29,-2.2c-0.01,-7.7 -0.01,-15.4 0,-23.1c0,-2.13 0.15,-2.28 2.26,-2.29c5.92,-0.02 11.84,0 17.76,0l0,0.01zm-17.72,2.31l0,22.99l35.16,0l0,-22.99l-35.16,0z" fill="#efb810" id="svg_4"/>
    <path class="cls-1" d="m50.95,55.45c1.33,0 2.39,1.06 2.37,2.37c-0.03,1.3 -1.16,2.37 -2.46,2.31c-1.19,-0.05 -2.24,-1.11 -2.27,-2.29c-0.04,-1.3 1.04,-2.38 2.36,-2.39zm1.52,2.27c-0.73,-0.48 -1.2,-1.01 -1.48,-0.92c-0.43,0.14 -0.72,0.7 -1.08,1.08c0.35,0.32 0.71,0.91 1.03,0.89c0.43,-0.03 0.83,-0.53 1.52,-1.04l0.01,-0.01z" fill="#efb810" id="svg_5"/>
   </g>
  </g>
 </g>
</svg>