<?xml version="1.0"?>
<svg width="99.21" height="99.26" xmlns="http://www.w3.org/2000/svg" xmlns:svg="http://www.w3.org/2000/svg" data-name="Capa 2">
 <defs>
  <style>.cls-1 {
        stroke-width: 0px;
      }</style>
 </defs>
 <g class="layer">
  <title>Layer 1</title>
  <g data-name="Capa 1" id="Capa_1-2">
   <g id="svg_1">
    <path class="cls-1" d="m49.59,0c26.5,0.01 49.64,20.96 49.63,49.67c-0.01,28.26 -22.62,49.64 -49.7,49.59c-26.86,-0.05 -49.49,-21.22 -49.52,-49.56c-0.03,-28.85 23.22,-49.68 49.59,-49.7zm45.14,49.72c0.21,-24.92 -20.33,-45.08 -44.75,-45.27c-24.98,-0.19 -45.43,20.3 -45.55,44.97c-0.12,23.82 19.04,45.21 44.91,45.37c25.71,0.16 45.54,-20.9 45.39,-45.07z" fill="#efb810" id="svg_2"/>
    <path class="cls-1" d="m49.26,44.61c-5.26,3.54 -10.39,6.99 -15.52,10.45c0.04,0.12 0.07,0.25 0.11,0.37c0.63,0.05 1.26,0.13 1.9,0.13c6.08,0 12.16,0 18.24,0.02c1.06,0 2,-0.15 2.92,-0.79c7.43,-5.15 14.89,-10.26 22.34,-15.39c0.28,-0.2 0.54,-0.44 1.14,-0.94c-0.93,-0.06 -1.48,-0.12 -2.03,-0.12c-5.86,0 -11.72,0.03 -17.57,-0.03c-1.48,-0.02 -2.74,0.29 -3.91,1.21c-0.87,0.69 -1.82,1.29 -2.79,1.81c-0.29,0.15 -0.79,-0.1 -1.2,-0.16c0.07,-0.39 0.01,-1 0.24,-1.15c2.42,-1.58 4.46,-3.66 7.86,-3.53c6.96,0.27 13.94,0.08 20.91,0.08c0.79,0 1.59,0 2.55,0c0.09,0.91 0.21,1.55 0.22,2.19c0.02,2.37 -0.04,4.75 0.03,7.12c0.04,1.31 -0.39,2.22 -1.46,3.02c-11.22,8.38 -22.41,16.81 -33.65,25.18c-0.65,0.49 -1.61,0.79 -2.43,0.8c-7.79,0.06 -15.57,0.05 -23.36,0.02c-2.21,0 -2.71,-0.75 -1.83,-2.73c2.25,-5.08 4.53,-10.15 6.86,-15.19c0.32,-0.7 0.92,-1.36 1.56,-1.8c5.45,-3.71 10.94,-7.37 16.42,-11.03c0.75,-0.5 1.5,-1.05 2.45,0.47l0,-0.01zm-25.56,28.44l23.83,0c1.42,-2.31 1.93,-5.01 3.78,-7.35c1.77,2 -0.74,3.37 -0.26,5.07c2.32,-1.73 4.57,-3.41 6.81,-5.09c7.82,-5.87 15.65,-11.72 23.45,-17.62c0.61,-0.46 1.44,-1.13 1.49,-1.76c0.18,-2.24 0.07,-4.51 0.07,-7.18c-1.04,0.69 -1.71,1.11 -2.36,1.56c-6.9,4.74 -13.77,9.52 -20.71,14.19c-2.02,1.36 -3.84,2.76 -4.46,5.25c-0.07,0.28 -0.19,0.64 -0.4,0.77c-0.38,0.24 -0.85,0.34 -1.28,0.5c-0.1,-0.39 -0.36,-0.83 -0.26,-1.16c0.27,-0.9 0.69,-1.75 1.07,-2.67c-0.41,-0.11 -0.62,-0.21 -0.83,-0.22c-7.26,-0.02 -14.52,0 -21.78,-0.05c-1.13,0 -1.53,0.58 -1.92,1.46c-1.93,4.33 -3.9,8.64 -5.84,12.96c-0.17,0.38 -0.25,0.81 -0.41,1.32l0.01,0.02z" fill="#efb810" id="svg_3"/>
   </g>
  </g>
 </g>
</svg>