<?xml version="1.0"?>
<svg width="99.21" height="99.23" xmlns="http://www.w3.org/2000/svg" xmlns:svg="http://www.w3.org/2000/svg" data-name="Capa 2">
 <defs>
  <style>.cls-1 {
        stroke-width: 0px;
      }</style>
 </defs>
 <g class="layer">
  <title>Layer 1</title>
  <g data-name="Capa 1" id="Capa_1-2">
   <g id="svg_1">
    <path class="cls-1" d="m49.57,99.23c-27.42,-0.08 -49.66,-22.38 -49.57,-49.74c0.09,-26.57 21.16,-49.58 49.76,-49.49c28.67,0.09 49.56,23.3 49.45,49.79c-0.11,26.87 -21.67,49.26 -49.64,49.44zm0.13,-4.53c24.03,0.21 45.06,-19.61 45.07,-45.15c0,-24.36 -19.69,-45.09 -45.14,-45.12c-25.39,-0.02 -45.28,20.71 -45.17,45.3c0.11,25.56 21.22,45.27 45.25,44.96l-0.01,0.01z" fill="#efb810" id="svg_2"/>
    <path class="cls-1" d="m28.35,63.26c-1.51,-3.06 -2.89,-6 -4.4,-8.89c-1.5,-2.87 -2.05,-5.82 -1.31,-9.01c0.42,-1.8 0.73,-3.63 1,-5.46c0.5,-3.4 3.69,-5.01 6.61,-3.3c1.66,0.97 3.41,1.77 5.14,2.63c0.51,0.25 1.05,0.45 1.92,0.82c0,-1.49 0.03,-2.71 0,-3.93c-0.08,-2.62 0.69,-4.96 2.24,-7.05c1.33,-1.78 2.62,-3.59 4.02,-5.32c2.13,-2.63 4.99,-2.6 7.09,0.05c1.24,1.57 2.4,3.2 3.62,4.78c1.83,2.38 2.78,5.03 2.63,8.05c-0.05,1 0,2.01 0,3.35c2.03,-1.02 3.73,-1.88 5.43,-2.72c0.73,-0.36 1.45,-0.75 2.21,-1.04c2.31,-0.88 4.73,0.1 5.31,2.5c0.78,3.22 1.33,6.52 1.65,9.82c0.14,1.39 -0.34,2.95 -0.9,4.28c-1.13,2.65 -2.51,5.2 -3.79,7.78c-0.13,0.26 -0.25,0.62 -0.47,0.73c-0.36,0.17 -0.89,0.33 -1.18,0.17c-0.28,-0.16 -0.52,-0.74 -0.47,-1.08c0.1,-0.56 0.43,-1.09 0.69,-1.62c1.16,-2.39 2.33,-4.78 3.67,-7.51c-2.53,-0.13 -4.8,-0.24 -7.22,-0.36c-1.21,2.43 -2.39,4.79 -3.58,7.16c0.81,1.23 1.53,2.44 2.37,3.54c0.32,0.41 0.91,0.69 1.43,0.86c1.05,0.34 2.17,0.47 3.2,0.87c4.99,1.96 5.95,6.63 5.29,10.33c-0.35,1.98 -1.82,3.24 -3.82,3.5c-0.58,0.08 -1.18,0.05 -1.78,0.05c-12,0 -24,0 -36,0c-0.44,0 -0.89,0.02 -1.33,-0.01c-2.51,-0.18 -4.14,-1.68 -4.39,-4.17c-0.36,-3.49 0.79,-6.41 3.54,-8.64c0.46,-0.37 0.94,-0.7 1.59,-1.18l-0.01,0.02zm18.46,11.84c6.29,0 12.58,0.02 18.87,0c2.09,0 2.8,-0.74 2.91,-2.76c0.22,-4.18 -2.75,-7.61 -7.06,-7.81c-1.51,-0.07 -2.16,-0.65 -2.84,-1.87c-2.54,-4.58 -6.56,-7.08 -11.75,-7.08c-5.19,0 -9.25,2.45 -11.75,7.06c-0.74,1.37 -1.53,1.81 -3.06,1.9c-3.91,0.22 -6.77,3.34 -6.85,7.11c-0.05,2.76 0.59,3.45 3.32,3.46c6.07,0.01 12.13,0 18.2,0l0.01,-0.01zm-0.92,-21.83c0,-0.76 0,-1.56 0,-2.36c0,-2.07 -0.05,-4.15 0.05,-6.22c0.02,-0.45 0.51,-1.16 0.9,-1.24c0.83,-0.19 1.12,0.51 1.12,1.25c0.01,2.22 0,4.44 0.02,6.66c0,0.71 0.08,1.42 0.11,1.9c2.39,0.71 4.47,1.33 6.57,1.95c0.47,-5.33 0.25,-19.46 -0.37,-21.07c-1.11,0.59 -2.18,1.25 -3.32,1.74c-2.06,0.87 -3.55,2.01 -3.02,4.59c0.15,0.73 -0.25,1.38 -1.08,1.33c-0.85,-0.04 -0.99,-0.74 -0.98,-1.47c0.01,-0.88 0,-1.76 0,-2.72c-2.16,-0.96 -4.15,-2.02 -6.48,-2.78l0,20.24c2.14,-0.61 4.11,-1.16 6.47,-1.83l0.01,0.03zm-21.1,-1.97c1.97,3.98 3.75,7.6 5.49,11.11c1.91,0.36 2.98,-0.34 3.71,-1.88c0.4,-0.85 1.08,-1.56 1.66,-2.38c-1.21,-2.41 -2.4,-4.78 -3.61,-7.21c-2.41,0.12 -4.66,0.23 -7.24,0.36l-0.01,0zm44.67,-2.09c0.05,-3.5 -0.98,-6.56 -1.46,-9.7c-0.16,-0.04 -0.32,-0.08 -0.48,-0.12c-1.51,3.05 -3.02,6.1 -4.69,9.49c2.38,0.12 4.39,0.22 6.63,0.33zm-44.96,0c2.18,-0.11 4.19,-0.22 6.51,-0.34c-1.63,-3.41 -3.12,-6.48 -4.92,-9.44c-0.62,3.22 -1.82,6.27 -1.59,9.78zm21.25,-24.26c-0.13,-0.06 -0.26,-0.11 -0.38,-0.17c-1.84,2.5 -3.67,5.01 -5.67,7.74c2.17,0.98 4,1.81 6.06,2.74l0,-10.3l-0.01,-0.01zm2.36,10.13c2.07,-1.11 3.91,-2.11 5.75,-3.1c-1.57,-2.93 -4.5,-6.61 -5.75,-7.3l0,10.4zm8.93,7.21c1.45,2 2.62,3.62 3.98,5.49c1.67,-3.38 3.14,-6.36 4.62,-9.35c-0.12,-0.11 -0.24,-0.21 -0.36,-0.32c-2.65,1.34 -5.31,2.69 -8.23,4.17l-0.01,0.01zm-24.15,5.55c1.44,-2.06 2.59,-3.72 3.9,-5.59c-2.94,-1.48 -5.59,-2.81 -8.24,-4.14l-0.32,0.34c1.48,2.99 2.97,5.98 4.66,9.39zm4.35,-1.63c-1.16,0.52 -1.64,1.11 -3.22,3.95c0.93,1.83 1.9,3.73 2.87,5.64c0.12,-0.05 0.23,-0.1 0.35,-0.15l0,-9.44zm22.69,3.77c-0.96,-1.23 -1.65,-2.55 -2.88,-3.78l0,8.8c0.11,0.03 0.22,0.06 0.33,0.08c0.84,-1.68 1.68,-3.35 2.55,-5.1z" fill="#efb810" id="svg_3"/>
    <path class="cls-1" d="m54.13,65.56c-0.78,0.36 -1.26,0.77 -1.7,0.73c-0.3,-0.03 -0.76,-0.65 -0.79,-1.03c-0.04,-0.69 0.54,-1.06 1.18,-0.85c0.39,0.12 0.68,0.58 1.31,1.16l0,-0.01z" fill="#efb810" id="svg_4"/>
    <path class="cls-1" d="m57.77,72.2c-0.5,-0.67 -1,-1.05 -1.06,-1.49c-0.03,-0.29 0.53,-0.84 0.92,-0.94c0.67,-0.18 1.16,0.31 1.08,0.98c-0.05,0.4 -0.48,0.76 -0.95,1.46l0.01,-0.01z" fill="#efb810" id="svg_5"/>
    <path class="cls-1" d="m48.15,72.35c-0.61,-0.8 -1.11,-1.18 -1.16,-1.62c-0.03,-0.3 0.53,-0.89 0.89,-0.94c0.32,-0.05 0.99,0.43 1.02,0.73c0.05,0.43 -0.35,0.91 -0.75,1.82l0,0.01z" fill="#efb810" id="svg_6"/>
   </g>
  </g>
 </g>
</svg>